<svg width="113" height="110" viewBox="0 0 113 110" fill="none" xmlns="http://www.w3.org/2000/svg">
<path d="M103.941 22.7412C114.015 40.385 114.684 66.6458 104.692 84.2856C102.443 88.2565 99.4381 91.8516 95.9873 94.9961C85.5306 104.525 68.7549 108.517 52.6853 106.987C36.6088 105.457 21.5543 98.4348 14.3894 86.3208C10.5046 79.7525 6.95774 71.5768 3.6771 61.7862C1.80728 56.206 0.751062 50.3648 1.31059 44.6001C2.6372 30.9324 8.12695 20.8847 16.174 13.9963C24.2373 7.09386 34.9428 3.30129 46.7836 2.30377C48.5698 2.1533 50.3473 1.99145 52.1216 1.82989C54.7122 1.594 57.296 1.35874 59.8895 1.16045C80.1504 -0.388551 96.3577 9.46067 103.941 22.7412Z" stroke="#F2F3FF" stroke-width="2"/>
<path d="M77.8489 43.1666L77.6539 44.7157L79.1425 44.245C79.7981 44.0377 80.4818 43.9325 81.1694 43.9331H81.1703C84.8044 43.9331 87.7504 46.8791 87.7504 50.513C87.7504 54.1471 84.8044 57.0931 81.1703 57.0931H75.7393L41.7288 57.0933H31.5801C27.946 57.0933 25 54.1473 25 50.5132C25 46.8791 27.946 43.9331 31.5801 43.9331L31.5818 43.9331C32.7676 43.931 33.933 44.2424 34.96 44.8354L36.4279 45.6828L36.4599 43.9882C36.4882 42.4901 36.9199 41.0272 37.7095 39.7538L37.7095 39.7538C40.1352 35.8418 45.2728 34.6369 49.1847 37.0626L50.1983 37.6911L50.6405 36.5835C52.7565 31.2834 57.8474 27.7717 63.5533 27.6759C71.3698 27.5446 77.8131 33.7721 77.9493 41.5872C77.9483 42.1152 77.9148 42.6428 77.8489 43.1666Z" fill="white" stroke="#1063AA" stroke-width="2"/>
<circle cx="64.5" cy="41.1738" r="9.5" stroke="#36D7B7" stroke-width="2"/>
<path d="M66 35.6738C66 35.1215 65.5523 34.6738 65 34.6738C64.4477 34.6738 64 35.1215 64 35.6738L66 35.6738ZM65 40.6738H64V41.6738H65V40.6738ZM69 41.6738C69.5523 41.6738 70 41.2261 70 40.6738C70 40.1215 69.5523 39.6738 69 39.6738V41.6738ZM64 35.6738V40.6738H66V35.6738L64 35.6738ZM65 41.6738H69V39.6738H65V41.6738Z" fill="#36D7B7"/>
<path d="M36 61.6738C36 61.1215 35.5523 60.6738 35 60.6738C34.4477 60.6738 34 61.1215 34 61.6738H36ZM35 71.1738H34V72.1738H35V71.1738ZM58.7071 71.8809C59.0976 71.4904 59.0976 70.8572 58.7071 70.4667L52.3431 64.1028C51.9526 63.7122 51.3195 63.7122 50.9289 64.1028C50.5384 64.4933 50.5384 65.1264 50.9289 65.517L56.5858 71.1738L50.9289 76.8307C50.5384 77.2212 50.5384 77.8544 50.9289 78.2449C51.3195 78.6354 51.9526 78.6354 52.3431 78.2449L58.7071 71.8809ZM34 61.6738V71.1738H36V61.6738H34ZM35 72.1738H58V70.1738H35V72.1738Z" fill="#1063AA"/>
<path d="M92.1127 64.7127L92.1267 65.6848L93.0988 65.6983C97.2296 65.7556 100.5 68.9816 100.5 72.8489C100.5 76.7508 97.1703 80.0002 92.9874 80.0002H70.5981C65.8167 80.0002 62 76.2845 62 71.8093C62 67.3341 65.8167 63.6184 70.5981 63.6183C70.6289 63.6183 70.6609 63.6186 70.6964 63.6189L71.5098 63.6274L71.6837 62.8327C72.1347 60.771 73.2755 58.8841 74.9543 57.4671L74.9543 57.4671C76.8347 55.8798 79.2596 55.0002 81.7842 55.0002C87.4715 55.0002 92.0365 59.3851 92.1127 64.7127Z" fill="white" stroke="#36D7B7" stroke-width="2"/>
<circle cx="71.5" cy="70.1738" r="2.5" fill="#36D7B7"/>
<circle cx="78.5" cy="70.1738" r="2.5" fill="#36D7B7"/>
<circle cx="85.5" cy="70.1738" r="2.5" fill="#36D7B7"/>
</svg>
