<svg width="101" height="101" viewBox="0 0 101 101" fill="none" xmlns="http://www.w3.org/2000/svg">
<path d="M95.2892 51.7593C104.465 21.6538 80.9974 8.27351 56.2934 8.27351C10.9893 -13.4693 -15.3902 14.9636 11.5628 51.7593C24.7526 67.927 0.666883 116.988 56.2934 95.245C87.8342 97.475 111.92 86.8824 95.2892 51.7593Z" fill="#063271" fill-opacity="0.05"/>
<rect x="11.4365" y="13.4727" width="62" height="64" rx="5" fill="white" stroke="#1063AA" stroke-width="2"/>
<path d="M11.4365 18.4727C11.4365 15.7112 13.6751 13.4727 16.4365 13.4727H68.4365C71.1979 13.4727 73.4365 15.7112 73.4365 18.4727V27.4727H11.4365V18.4727Z" stroke="#1063AA" stroke-width="2"/>
<circle cx="29.4365" cy="20.4727" r="3" fill="#1063AA" stroke="#1063AA" stroke-width="2"/>
<circle cx="53.4365" cy="20.4727" r="3" stroke="#1063AA" stroke-width="2"/>
<rect x="16.4365" y="32.4727" width="10" height="10" fill="#FFB801"/>
<rect x="30.4365" y="32.4727" width="10" height="10" fill="#FFB801"/>
<rect x="45.4365" y="33.4727" width="8" height="8" fill="white" stroke="#1063AA" stroke-width="2"/>
<rect x="59.4365" y="33.4727" width="8" height="8" fill="white" stroke="#1063AA" stroke-width="2"/>
<rect x="17.4365" y="47.4727" width="8" height="8" fill="white" stroke="#1063AA" stroke-width="2"/>
<rect x="31.4365" y="47.4727" width="8" height="8" fill="white" stroke="#1063AA" stroke-width="2"/>
<rect x="45.4365" y="47.4727" width="8" height="8" fill="white" stroke="#1063AA" stroke-width="2"/>
<rect x="59.4365" y="47.4727" width="8" height="8" fill="white" stroke="#1063AA" stroke-width="2"/>
<rect x="17.4365" y="61.4727" width="8" height="8" fill="white" stroke="#1063AA" stroke-width="2"/>
<rect x="31.4365" y="61.4727" width="8" height="8" fill="white" stroke="#1063AA" stroke-width="2"/>
<rect x="45.4365" y="61.4727" width="8" height="8" fill="white" stroke="#1063AA" stroke-width="2"/>
<rect x="59.4365" y="61.4727" width="8" height="8" fill="white" stroke="#1063AA" stroke-width="2"/>
<rect x="58.4365" y="50.4727" width="30" height="30" rx="4" fill="#FFB801"/>
<path d="M73.4365 56.4727L75.4365 62.4727H81.4365L76.9365 66.4727L78.7265 72.7538L73.4365 69.4727L68.1464 72.7538L69.9365 66.4727L65.4365 62.4727H71.4365L73.4365 56.4727Z" fill="white"/>
<rect x="27.4365" y="9.47266" width="4" height="13" rx="2" fill="white" stroke="#1063AA" stroke-width="2"/>
<rect x="51.4365" y="9.47266" width="4" height="13" rx="2" fill="white" stroke="#1063AA" stroke-width="2"/>
</svg>
