<svg width="114" height="110" viewBox="0 0 114 110" fill="none" xmlns="http://www.w3.org/2000/svg">
<path d="M9.70001 22.7412C-0.374329 40.385 -1.043 66.6458 8.94868 84.2856C11.1979 88.2565 14.2025 91.8516 17.6534 94.9961C28.1101 104.525 44.8857 108.517 60.9554 106.987C77.0318 105.457 92.0863 98.4348 99.2512 86.3208C103.136 79.7525 106.683 71.5768 109.964 61.7862C111.833 56.206 112.89 50.3648 112.33 44.6001C111.003 30.9324 105.514 20.8847 97.4667 13.9963C89.4033 7.09386 78.6978 3.30129 66.857 2.30377C65.0708 2.1533 63.2933 1.99145 61.5191 1.82989C58.9284 1.594 56.3447 1.35874 53.7511 1.16045C33.4902 -0.388551 17.283 9.46067 9.70001 22.7412Z" stroke="#F2F3FF" stroke-width="2"/>
<path d="M88.5498 68.6756C93.7868 68.6756 98.0322 64.4631 98.0322 59.2667C98.0322 54.0704 93.7868 49.8579 88.5498 49.8579C87.5613 49.857 86.5785 50.0071 85.636 50.3028C85.7254 49.5979 85.7706 48.8881 85.7715 48.1777C85.5955 37.7863 76.9634 29.5039 66.4907 29.6785C58.8488 29.8058 52.0306 34.4727 49.1965 41.5161C43.7157 38.1439 36.5175 39.819 33.1191 45.2574C32.0127 47.0278 31.4079 49.0615 31.3683 51.1442C29.8927 50.2989 28.2184 49.855 26.5146 49.8579C21.2776 49.8579 17.0322 54.0704 17.0322 59.2668C17.0322 64.4633 21.2776 68.6758 26.5146 68.6758H34.5322" stroke="#1063AA" stroke-width="2"/>
<path d="M46.5322 57.6758C41.2855 57.6758 37.0322 58.6916 37.0322 59.9447V76.2556V76.4069C37.0322 77.66 41.2855 78.6758 46.5322 78.6758C51.7789 78.6758 56.0322 77.66 56.0322 76.4069V76.2556V65.0119V59.9447C56.0322 58.6916 51.7789 57.6758 46.5322 57.6758Z" stroke="#36D7B7" stroke-width="2"/>
<path d="M56.0322 60.6758C56.0322 62.3326 51.7789 63.6758 46.5322 63.6758C41.2855 63.6758 37.0322 62.3326 37.0322 60.6758" stroke="#36D7B7" stroke-width="2" stroke-miterlimit="11.4737"/>
<path d="M56.0322 65.6758C56.0322 67.3326 51.7789 68.6758 46.5322 68.6758C41.2855 68.6758 37.0322 67.3326 37.0322 65.6758" stroke="#36D7B7" stroke-width="2" stroke-miterlimit="11.4737"/>
<path d="M56.0322 70.6758C56.0322 72.3326 51.7789 73.6758 46.5322 73.6758C41.2855 73.6758 37.0322 72.3326 37.0322 70.6758" stroke="#36D7B7" stroke-width="2" stroke-miterlimit="11.4737"/>
<path d="M74.5322 57.6758C69.2855 57.6758 65.0322 58.6916 65.0322 59.9447V76.2556V76.4069C65.0322 77.66 69.2855 78.6758 74.5322 78.6758C79.7789 78.6758 84.0322 77.66 84.0322 76.4069V76.2556V65.0119V59.9447C84.0322 58.6916 79.7789 57.6758 74.5322 57.6758Z" stroke="#36D7B7" stroke-width="2"/>
<path d="M84.0322 60.6758C84.0322 62.3326 79.7789 63.6758 74.5322 63.6758C69.2855 63.6758 65.0322 62.3326 65.0322 60.6758" stroke="#36D7B7" stroke-width="2" stroke-miterlimit="11.4737"/>
<path d="M84.0322 65.6758C84.0322 67.3326 79.7789 68.6758 74.5322 68.6758C69.2855 68.6758 65.0322 67.3326 65.0322 65.6758" stroke="#36D7B7" stroke-width="2" stroke-miterlimit="11.4737"/>
<path d="M84.0322 70.6758C84.0322 72.3326 79.7789 73.6758 74.5322 73.6758C69.2855 73.6758 65.0322 72.3326 65.0322 70.6758" stroke="#36D7B7" stroke-width="2" stroke-miterlimit="11.4737"/>
<path d="M61.5322 48.6758C53.5241 48.6758 47.0322 50.3204 47.0322 52.3493V78.7574V79.0023C47.0322 81.0311 53.5241 82.6758 61.5322 82.6758C69.5404 82.6758 76.0322 81.0311 76.0322 79.0023V78.7574V60.5533V52.3493C76.0322 50.3204 69.5404 48.6758 61.5322 48.6758Z" fill="white" stroke="#36D7B7" stroke-width="2"/>
<path d="M76.0322 66.6758C76.0322 68.8849 69.5404 70.6758 61.5322 70.6758C53.5241 70.6758 47.0322 68.8849 47.0322 66.6758" stroke="#36D7B7" stroke-width="2" stroke-miterlimit="11.4737"/>
<path d="M76.0322 60.6758C76.0322 62.8849 69.5404 64.6758 61.5322 64.6758C53.5241 64.6758 47.0322 62.8849 47.0322 60.6758" stroke="#36D7B7" stroke-width="2" stroke-miterlimit="11.4737"/>
<path d="M76.0322 53.6758C76.0322 55.8849 69.5404 57.6758 61.5322 57.6758C53.5241 57.6758 47.0322 55.8849 47.0322 53.6758" stroke="#36D7B7" stroke-width="2" stroke-miterlimit="11.4737"/>
<path d="M76.0322 72.6758C76.0322 74.8849 69.5404 76.6758 61.5322 76.6758C53.5241 76.6758 47.0322 74.8849 47.0322 72.6758" stroke="#36D7B7" stroke-width="2" stroke-miterlimit="11.4737"/>
</svg>
