<svg width="10" height="16" viewBox="0 0 10 16" fill="none" xmlns="http://www.w3.org/2000/svg">
<mask id="path-1-inside-1" fill="white">
<path d="M0 2C0 0.895431 0.895431 0 2 0H8C9.10457 0 10 0.895431 10 2V14C10 15.1046 9.10457 16 8 16H2C0.89543 16 0 15.1046 0 14V2Z"/>
<path d="M3 0H7C7 0.552285 6.55228 1 6 1H4C3.44772 1 3 0.552285 3 0Z"/>
</mask>
<path d="M0 2C0 0.895431 0.895431 0 2 0H8C9.10457 0 10 0.895431 10 2V14C10 15.1046 9.10457 16 8 16H2C0.89543 16 0 15.1046 0 14V2Z" fill="white"/>
<path d="M3 0H7C7 0.552285 6.55228 1 6 1H4C3.44772 1 3 0.552285 3 0Z" fill="white"/>
<path d="M3.50055 13.0008C3.22441 13.0008 3.00057 13.2247 3.00059 13.5008C3.0006 13.777 3.22448 14.0008 3.50062 14.0008L3.50055 13.0008ZM6.50023 14.0006C6.77637 14.0006 7.00021 13.7767 7.0002 13.5006C7.00018 13.2244 6.77631 13.0006 6.50016 13.0006L6.50023 14.0006ZM3.50062 14.0008L6.50023 14.0006L6.50016 13.0006L3.50055 13.0008L3.50062 14.0008ZM3 0V-1H2V0H3ZM7 0H8V-1H7V0ZM2 1H8V-1H2V1ZM9 2V14H11V2H9ZM8 15H2V17H8V15ZM1 14V2H-1V14H1ZM2 15C1.44772 15 1 14.5523 1 14H-1C-1 15.6569 0.343146 17 2 17V15ZM9 14C9 14.5523 8.55228 15 8 15V17C9.65685 17 11 15.6569 11 14H9ZM8 1C8.55228 1 9 1.44772 9 2H11C11 0.343146 9.65685 -1 8 -1V1ZM2 -1C0.343146 -1 -1 0.343146 -1 2H1C1 1.44772 1.44772 1 2 1V-1ZM3 1H7V-1H3V1ZM6 0H4V2H6V0ZM4 0H2C2 1.10457 2.89543 2 4 2V0ZM6 0V2C7.10457 2 8 1.10457 8 0H6Z" fill="#DEE2EB" mask="url(#path-1-inside-1)"/>
</svg>
