<svg width="18" height="18" viewBox="0 0 18 18" fill="none" xmlns="http://www.w3.org/2000/svg">
<g clip-path="url(#clip0)">
<path d="M16.5998 4.99116C16.6164 4.16578 16.4351 3.33124 16.2878 2.5095C16.2372 2.22663 16.1345 1.95329 16.0333 1.68508C15.9571 1.48317 15.7321 1.35459 15.5249 1.39879C15.3908 1.42736 15.2702 1.45519 15.1533 1.49366C13.9292 1.89636 12.7958 2.48532 11.707 3.16958C11.5607 3.2614 11.3479 3.29454 11.1713 3.2816C10.7488 3.25072 10.3309 3.14558 9.90857 3.12556C8.86338 3.07604 7.82027 3.10785 6.78457 3.289C6.64059 3.31415 6.45103 3.28938 6.33142 3.21206C5.14411 2.44379 3.9088 1.78624 2.51921 1.41706C2.3106 1.36163 2.09593 1.39098 2.04317 1.47383C2.01096 1.52451 1.98182 1.57708 1.96583 1.63344C1.81571 2.1609 1.6378 2.6857 1.55055 3.22439C1.44656 3.86728 1.34655 4.52963 1.39589 5.17175C1.42695 5.57538 1.31549 5.82342 1.09494 6.10666C0.355054 7.0572 0.0218868 8.14983 0.0014996 9.34781C-0.016024 10.3724 0.11959 11.371 0.431622 12.3505C0.909553 13.8513 1.83245 14.9776 3.22208 15.7105C4.36463 16.313 5.60965 16.5452 6.88365 16.5899C8.03193 16.6302 9.18245 16.596 10.332 16.6025C11.4843 16.609 12.6208 16.5063 13.7231 16.1471C14.8264 15.7876 15.7811 15.2076 16.522 14.2955C17.5919 12.9781 17.9251 11.4262 17.9934 9.78344C18.0459 8.52719 17.7898 7.34542 17.0541 6.31772C16.7558 5.90077 16.5886 5.54264 16.5998 4.99116ZM14.3814 14.6171C13.8873 15.0443 13.2831 15.2466 12.6645 15.3944C11.451 15.6844 10.2153 15.7566 8.97559 15.7025C7.75018 15.7556 6.53887 15.6792 5.34661 15.3986C4.46713 15.1918 3.66422 14.8439 3.10458 14.089C2.21405 12.8876 1.98643 10.6012 3.45795 9.35335C3.8332 9.03522 4.25171 8.83331 4.74623 8.8019C5.29199 8.76704 5.83793 8.69903 6.38327 8.70551C7.75899 8.72188 9.13408 8.79029 10.5096 8.80056C11.1378 8.80511 11.7705 8.65863 12.3941 8.69636C12.9608 8.73066 13.5567 8.83502 14.071 9.06304C14.9284 9.44324 15.3899 10.2142 15.5293 11.1171C15.7369 12.4596 15.463 13.6816 14.3814 14.6171Z" fill="#222222"/>
<path d="M12.1398 13.7526C12.8639 13.7526 13.4509 12.9681 13.4509 12.0003C13.4509 11.0326 12.8639 10.248 12.1398 10.248C11.4156 10.248 10.8286 11.0326 10.8286 12.0003C10.8286 12.9681 11.4156 13.7526 12.1398 13.7526Z" fill="#222222"/>
<path d="M5.88358 13.7526C6.6078 13.7526 7.1949 12.9681 7.1949 12.0003C7.1949 11.0326 6.6078 10.248 5.88358 10.248C5.15936 10.248 4.57227 11.0326 4.57227 12.0003C4.57227 12.9681 5.15936 13.7526 5.88358 13.7526Z" fill="#222222"/>
</g>
<defs>
<clipPath id="clip0">
<rect width="18" height="18" fill="white"/>
</clipPath>
</defs>
</svg>
