<svg width="1149" height="489" viewBox="0 0 1149 489" fill="none" xmlns="http://www.w3.org/2000/svg">
<path d="M1121.62 309.237L1147 294.467L1146.58 399H1075V294L1100.29 309.113C1106.85 313.034 1115.02 313.081 1121.62 309.237Z" fill="url(#paint0_linear)" fill-opacity="0.25"/>
<path d="M1105.21 313.469C1108.33 315.331 1112.21 315.354 1115.35 313.531L1145.98 295.752C1147.32 294.976 1147.31 293.042 1145.96 292.281L1115.31 274.932C1112.19 273.164 1108.36 273.206 1105.27 275.042L1075.88 292.533C1074.58 293.308 1074.58 295.193 1075.88 295.97L1105.21 313.469Z" fill="url(#paint1_linear)"/>
<path d="M578.745 314.979L478 261.311L479 489H699V260L598.697 314.868C592.489 318.264 584.989 318.306 578.745 314.979Z" fill="url(#paint2_linear)"/>
<path d="M578.654 205.183C584.962 201.424 592.823 201.424 599.131 205.183L644.11 231.988L669.996 247.414C671.133 248.092 672.394 248.537 673.706 248.724L700.228 252.5L700.227 261.166C700.227 262.924 699.305 264.552 697.797 265.455L599.136 324.57C592.827 328.35 584.951 328.362 578.63 324.601L481.14 266.595C479.625 265.693 478.697 264.061 478.697 262.298L478.697 251.576L503.931 248.686C505.338 248.525 506.695 248.066 507.912 247.341L533.675 231.988L578.654 205.183Z" fill="#1063AA"/>
<path d="M598.83 317.634C592.502 321.406 584.612 321.394 578.295 317.602L483.523 260.712C476.631 256.574 476.632 246.584 483.525 242.448L578.31 185.574C584.619 181.788 592.497 181.772 598.821 185.533L694.754 242.572C701.53 246.601 701.535 256.409 694.765 260.445L598.83 317.634Z" fill="url(#paint3_linear)"/>
<path d="M597.55 315.486C592.013 318.787 585.109 318.777 579.582 315.459L484.81 258.568C479.536 255.402 479.536 247.757 484.811 244.592L579.596 187.718C585.116 184.405 592.01 184.391 597.544 187.682L693.477 244.721C698.623 247.781 698.628 255.231 693.485 258.297L597.55 315.486Z" stroke="white" stroke-opacity="0.5" stroke-width="5"/>
<path d="M660.56 169.698L651.589 163.56L651.588 163.589C648.397 161.135 643.59 161.174 638.103 164.321L634.675 166.291C634.782 163.542 634.245 160.994 633.24 158.781L637.364 158.941L628.646 152.997C624.545 149.887 618.965 149.091 613.878 151.971L605.776 156.554C605.708 151.963 604.86 148.062 603.396 144.941L607.702 145.109L598.111 138.566L598.11 138.58C593.123 135.238 586.1 135.445 578.155 140.006C562.132 149.209 548.533 172.582 547.769 192.205C547.729 193.248 547.681 194.461 547.634 195.687L537.948 201.254C527.293 207.376 520.416 219.194 519.909 232.234C509.771 238.065 501.193 252.217 500.74 263.861C500.518 269.57 502.31 273.607 505.364 275.561L505.363 275.575L514.853 282.058L515.515 275.73C516.412 275.37 517.325 274.954 518.255 274.411L636.436 206.497C646.573 200.68 655.152 186.514 655.605 174.87C655.683 172.868 655.505 171.082 655.112 169.5L660.559 169.712L660.56 169.698Z" fill="#BADFE5"/>
<g filter="url(#filter0_d)">
<path d="M648.011 171.086L644.583 173.057C645.046 161.159 633.521 153.228 623.786 158.736L615.684 163.32C615.395 145.379 603.422 137.939 588.063 146.772C572.04 155.975 558.441 179.334 557.677 198.971C557.636 200.014 557.589 201.227 557.541 202.453L547.856 208.02C537.2 214.142 530.324 225.96 529.817 238.999C519.692 244.818 511.101 258.983 510.648 270.627C510.195 282.271 518.039 286.995 528.176 281.163L646.357 213.249C656.495 207.432 665.073 193.266 665.526 181.622C665.992 169.979 658.148 165.255 648.011 171.086Z" fill="white"/>
<path d="M646.357 213.249C656.495 207.432 665.073 193.266 665.526 181.622L646.357 213.249ZM646.357 213.249L528.176 281.163M646.357 213.249L528.176 281.163M528.176 281.163C518.039 286.995 510.195 282.271 510.648 270.627C511.101 258.983 519.692 244.818 529.817 238.999C530.324 225.96 537.2 214.142 547.856 208.02M528.176 281.163L547.856 208.02M547.856 208.02L557.541 202.453L547.856 208.02ZM648.26 171.52L648.26 171.52C653.244 168.653 657.533 168.452 660.487 170.229C663.44 172.006 665.255 175.879 665.026 181.602L665.026 181.603C664.804 187.319 662.582 193.69 659.146 199.362C655.709 205.033 651.086 209.959 646.109 212.816L646.108 212.816L527.927 280.73L527.927 280.73C522.943 283.597 518.654 283.797 515.698 282.02C512.744 280.243 510.925 276.37 511.148 270.646C511.37 264.93 513.595 258.559 517.033 252.888C520.471 247.216 525.095 242.29 530.066 239.433L530.305 239.295L530.316 239.019C530.817 226.138 537.609 214.484 548.105 208.453L548.105 208.453L557.791 202.886L558.03 202.749L558.041 202.472L558.041 202.465L558.042 202.458L558.042 202.451L558.042 202.444L558.042 202.436L558.043 202.429L558.043 202.422L558.043 202.415L558.044 202.408L558.044 202.401L558.044 202.393L558.044 202.386L558.045 202.379L558.045 202.372L558.045 202.365L558.046 202.357L558.046 202.35L558.046 202.343L558.046 202.336L558.047 202.329L558.047 202.322L558.047 202.314L558.047 202.307L558.048 202.3L558.048 202.293L558.048 202.286L558.049 202.279L558.049 202.271L558.049 202.264L558.049 202.257L558.05 202.25L558.05 202.243L558.05 202.235L558.051 202.228L558.051 202.221L558.051 202.214L558.051 202.207L558.052 202.2L558.052 202.192L558.052 202.185L558.053 202.178L558.053 202.171L558.053 202.164L558.053 202.157L558.054 202.149L558.054 202.142L558.054 202.135L558.054 202.128L558.055 202.121L558.055 202.114L558.055 202.106L558.056 202.099L558.056 202.092L558.056 202.085L558.056 202.078L558.057 202.071L558.057 202.064L558.057 202.056L558.058 202.049L558.058 202.042L558.058 202.035L558.058 202.028L558.059 202.021L558.059 202.013L558.059 202.006L558.059 201.999L558.06 201.992L558.06 201.985L558.06 201.978L558.061 201.971L558.061 201.963L558.061 201.956L558.061 201.949L558.062 201.942L558.062 201.935L558.062 201.928L558.063 201.921L558.063 201.913L558.063 201.906L558.063 201.899L558.064 201.892L558.064 201.885L558.064 201.878L558.064 201.871L558.065 201.863L558.065 201.856L558.065 201.849L558.066 201.842L558.066 201.835L558.066 201.828L558.066 201.821L558.067 201.814L558.067 201.806L558.067 201.799L558.068 201.792L558.068 201.785L558.068 201.778L558.068 201.771L558.069 201.764L558.069 201.757L558.069 201.749L558.069 201.742L558.07 201.735L558.07 201.728L558.07 201.721L558.071 201.714L558.071 201.707L558.071 201.7L558.071 201.693L558.072 201.685L558.072 201.678L558.072 201.671L558.073 201.664L558.073 201.657L558.073 201.65L558.073 201.643L558.074 201.636L558.074 201.629L558.074 201.622L558.074 201.614L558.075 201.607L558.075 201.6L558.075 201.593L558.076 201.586L558.076 201.579L558.076 201.572L558.076 201.565L558.077 201.558L558.077 201.551L558.077 201.543L558.077 201.536L558.078 201.529L558.078 201.522L558.078 201.515L558.079 201.508L558.079 201.501L558.079 201.494L558.079 201.487L558.08 201.48L558.08 201.473L558.08 201.466L558.081 201.459L558.081 201.451L558.081 201.444L558.081 201.437L558.082 201.43L558.082 201.423L558.082 201.416L558.082 201.409L558.083 201.402L558.083 201.395L558.083 201.388L558.084 201.381L558.084 201.374L558.084 201.367L558.084 201.36L558.085 201.353L558.085 201.346L558.085 201.339L558.085 201.332L558.086 201.324L558.086 201.317L558.086 201.31L558.087 201.303L558.087 201.296L558.087 201.289L558.087 201.282L558.088 201.275L558.088 201.268L558.088 201.261L558.088 201.254L558.089 201.247L558.089 201.24L558.089 201.233L558.09 201.226L558.09 201.219L558.09 201.212L558.09 201.205L558.091 201.198L558.091 201.191L558.091 201.184L558.091 201.177L558.092 201.17L558.092 201.163L558.092 201.156L558.093 201.149L558.093 201.142L558.093 201.135L558.093 201.128L558.094 201.121L558.094 201.114L558.094 201.107L558.094 201.1L558.095 201.093L558.095 201.086L558.095 201.079L558.096 201.072L558.096 201.065L558.096 201.058L558.096 201.051L558.097 201.044L558.097 201.037L558.097 201.03L558.097 201.023L558.098 201.016L558.098 201.009L558.098 201.002L558.099 200.995L558.099 200.988L558.099 200.981L558.099 200.974L558.1 200.967L558.1 200.96L558.1 200.953L558.1 200.946L558.101 200.939L558.101 200.932L558.101 200.925L558.102 200.919L558.102 200.912L558.102 200.905L558.102 200.898L558.103 200.891L558.103 200.884L558.103 200.877L558.103 200.87L558.104 200.863L558.104 200.856L558.104 200.849L558.104 200.842L558.105 200.835L558.105 200.828L558.105 200.821L558.106 200.815L558.106 200.808L558.106 200.801L558.106 200.794L558.107 200.787L558.107 200.78L558.107 200.773L558.107 200.766L558.108 200.759L558.108 200.752L558.108 200.745L558.109 200.739L558.109 200.732L558.109 200.725L558.109 200.718L558.11 200.711L558.11 200.704L558.11 200.697L558.11 200.69L558.111 200.683L558.111 200.676L558.111 200.67L558.111 200.663L558.112 200.656L558.112 200.649L558.112 200.642L558.113 200.635L558.113 200.628L558.113 200.622L558.113 200.615L558.114 200.608L558.114 200.601L558.114 200.594L558.114 200.587L558.115 200.58L558.115 200.574L558.115 200.567L558.115 200.56L558.116 200.553L558.116 200.546L558.116 200.539L558.117 200.532L558.117 200.526L558.117 200.519L558.117 200.512L558.118 200.505L558.118 200.498L558.118 200.491L558.118 200.485L558.119 200.478L558.119 200.471L558.119 200.464L558.119 200.457L558.12 200.451L558.12 200.444L558.12 200.437L558.121 200.43L558.121 200.423L558.121 200.417L558.121 200.41L558.122 200.403L558.122 200.396L558.122 200.389L558.122 200.383L558.123 200.376L558.123 200.369L558.123 200.362L558.123 200.356L558.124 200.349L558.124 200.342L558.124 200.335L558.124 200.328L558.125 200.322L558.125 200.315L558.125 200.308L558.126 200.301L558.126 200.295L558.126 200.288L558.126 200.281L558.127 200.274L558.127 200.268L558.127 200.261L558.127 200.254L558.128 200.247L558.128 200.241L558.128 200.234L558.128 200.227L558.129 200.221L558.129 200.214L558.129 200.207L558.129 200.2L558.13 200.194L558.13 200.187L558.13 200.18L558.131 200.174L558.131 200.167L558.131 200.16L558.131 200.153L558.132 200.147L558.132 200.14L558.132 200.133L558.132 200.127L558.133 200.12L558.133 200.113L558.133 200.107L558.133 200.1L558.134 200.093L558.134 200.087L558.134 200.08L558.134 200.073L558.135 200.067L558.135 200.06L558.135 200.053L558.135 200.047L558.136 200.04L558.136 200.033L558.136 200.027L558.136 200.02L558.137 200.013L558.137 200.007L558.137 200L558.138 199.993L558.138 199.987L558.138 199.98L558.138 199.973L558.139 199.967L558.139 199.96L558.139 199.954L558.139 199.947L558.14 199.94L558.14 199.934L558.14 199.927L558.14 199.921L558.141 199.914L558.141 199.907L558.141 199.901L558.141 199.894L558.142 199.888L558.142 199.881L558.142 199.874L558.142 199.868L558.143 199.861L558.143 199.855L558.143 199.848L558.143 199.842L558.144 199.835L558.144 199.828L558.144 199.822L558.144 199.815L558.145 199.809L558.145 199.802L558.145 199.796L558.145 199.789L558.146 199.783L558.146 199.776L558.146 199.769L558.146 199.763L558.147 199.756L558.147 199.75L558.147 199.743L558.147 199.737L558.148 199.73L558.148 199.724L558.148 199.717L558.149 199.711L558.149 199.704L558.149 199.698L558.149 199.691L558.15 199.685L558.15 199.678L558.15 199.672L558.15 199.665L558.151 199.659L558.151 199.652L558.151 199.646L558.151 199.639L558.152 199.633L558.152 199.626L558.152 199.62L558.152 199.613L558.153 199.607L558.153 199.601L558.153 199.594L558.153 199.588L558.154 199.581L558.154 199.575L558.154 199.568L558.154 199.562L558.155 199.555L558.155 199.549L558.155 199.543L558.155 199.536L558.156 199.53L558.156 199.523L558.156 199.517L558.156 199.51L558.157 199.504L558.157 199.498L558.157 199.491L558.157 199.485L558.158 199.478L558.158 199.472L558.158 199.466L558.158 199.459L558.159 199.453L558.159 199.447L558.159 199.44L558.159 199.434L558.16 199.427L558.16 199.421L558.16 199.415L558.16 199.408L558.161 199.402L558.161 199.396L558.161 199.389L558.161 199.383L558.162 199.377L558.162 199.37L558.162 199.364L558.162 199.358L558.162 199.351L558.163 199.345L558.163 199.339L558.163 199.332L558.163 199.326L558.164 199.32L558.164 199.313L558.164 199.307L558.164 199.301L558.165 199.295L558.165 199.288L558.165 199.282L558.165 199.276L558.166 199.269L558.166 199.263L558.166 199.257L558.166 199.251L558.167 199.244L558.167 199.238L558.167 199.232L558.167 199.225L558.168 199.219L558.168 199.213L558.168 199.207L558.168 199.201L558.169 199.194L558.169 199.188L558.169 199.182L558.169 199.176L558.17 199.169L558.17 199.163L558.17 199.157L558.17 199.151L558.171 199.144L558.171 199.138L558.171 199.132L558.171 199.126L558.171 199.12L558.172 199.114L558.172 199.107L558.172 199.101L558.172 199.095L558.173 199.089L558.173 199.083L558.173 199.076L558.173 199.07L558.174 199.064L558.174 199.058L558.174 199.052L558.174 199.046L558.175 199.04L558.175 199.033L558.175 199.027L558.175 199.021L558.176 199.015L558.176 199.009L558.176 199.003L558.176 198.997L558.177 198.99C558.555 189.271 562.113 178.601 567.58 169.21C573.048 159.818 580.397 151.752 588.312 147.206L588.312 147.206C595.9 142.842 602.528 142.563 607.266 145.433C612.012 148.309 615.041 154.452 615.184 163.328L615.197 164.17L615.93 163.755L624.032 159.172L623.786 158.736L624.032 159.172C633.361 153.893 644.534 161.454 644.083 173.037L644.048 173.941L644.832 173.49L648.26 171.52Z" stroke="white"/>
</g>
<g clip-path="url(#clip0)">
<path d="M604.562 216.591L628.761 192.645L652.067 191.677C652.067 191.677 659.512 226.457 631.252 258.687C600.605 257.654 604.562 216.591 604.562 216.591Z" fill="url(#paint4_linear)"/>
<path d="M652.067 191.677L657.179 194.885L633.873 195.853L628.762 192.645L652.067 191.677Z" fill="url(#paint5_linear)"/>
<path d="M609.674 219.806L633.873 195.854L643.459 195.265L657.178 194.886C657.178 194.886 659.691 226.407 631.431 258.637C604.547 255.328 609.674 219.806 609.674 219.806Z" fill="url(#paint6_linear)"/>
<path d="M609.674 219.805L633.874 195.853L657.179 194.885C656.538 194.484 656.538 194.484 656.538 194.484L632.923 195.465L608.724 219.411C608.724 219.411 604.449 249.108 624.263 256.723C605.536 248.54 609.674 219.805 609.674 219.805Z" fill="white"/>
<path opacity="0.2" d="M612.478 220.297L634.237 198.766L642.861 198.238L655.186 197.897C655.186 197.897 657.445 226.239 632.035 255.213C607.874 252.238 612.478 220.297 612.478 220.297Z" fill="white"/>
</g>
<path d="M829.589 188.723L904 142.191V349L733.388 348.603L733 141L807.108 188.588C813.945 192.978 822.701 193.031 829.589 188.723Z" fill="url(#paint7_linear)" fill-opacity="0.25"/>
<path d="M828.77 100.251C822.462 96.4915 814.601 96.4915 808.293 100.251L774.97 120.109L754.998 132.012C753.805 132.722 752.477 133.177 751.098 133.347L733.068 135.563L733.068 143.061C733.068 144.804 733.976 146.422 735.465 147.33L808.152 191.66C814.529 195.549 822.542 195.561 828.93 191.69L901.591 147.661C903.087 146.755 904 145.134 904 143.385L904 135.5L885.982 133.342C884.592 133.176 883.254 132.72 882.052 132.003L862.094 120.109L828.77 100.251Z" fill="#1063AA"/>
<path d="M808.28 186.39C814.595 190.158 822.468 190.157 828.782 186.387L898.883 144.527C905.71 140.45 905.704 130.559 898.873 126.491L828.762 84.7351C822.458 80.9806 814.605 80.9795 808.299 84.7321L738.14 126.489C731.305 130.557 731.299 140.452 738.13 144.528L808.28 186.39Z" fill="url(#paint8_linear)"/>
<path d="M809.561 184.243C815.086 187.541 821.976 187.54 827.5 184.241L897.601 142.38C902.803 139.274 902.799 131.739 897.593 128.639L827.483 86.883C821.967 83.5978 815.095 83.5968 809.578 86.8804L739.419 128.637C734.211 131.737 734.207 139.276 739.411 142.382L809.561 184.243Z" stroke="white" stroke-opacity="0.3" stroke-width="5"/>
<path d="M369.589 188.723L444 142.191L443.224 349L273.388 348.603L273 141L347.108 188.588C353.945 192.978 362.701 193.031 369.589 188.723Z" fill="url(#paint9_linear)" fill-opacity="0.25"/>
<path d="M368.77 100.251C362.462 96.4915 354.601 96.4915 348.293 100.251L314.97 120.109L294.998 132.012C293.805 132.722 292.477 133.177 291.098 133.347L273.068 135.563L273.068 143.061C273.068 144.804 273.976 146.422 275.465 147.33L348.152 191.66C354.529 195.549 362.542 195.561 368.93 191.69L441.591 147.661C443.087 146.755 444 145.134 444 143.385L444 135.5L425.982 133.342C424.592 133.176 423.254 132.72 422.052 132.003L402.094 120.109L368.77 100.251Z" fill="#1063AA"/>
<path d="M348.28 186.39C354.595 190.158 362.468 190.157 368.782 186.387L438.883 144.527C445.71 140.45 445.704 130.559 438.873 126.491L368.762 84.7351C362.458 80.9806 354.605 80.9795 348.299 84.7321L278.14 126.489C271.305 130.557 271.299 140.452 278.13 144.528L348.28 186.39Z" fill="url(#paint10_linear)"/>
<path d="M349.561 184.243C355.086 187.541 361.976 187.54 367.5 184.241L437.601 142.38C442.803 139.274 442.799 131.739 437.593 128.639L367.483 86.883C361.967 83.5978 355.095 83.5968 349.578 86.8804L279.419 128.637C274.211 131.737 274.207 139.276 279.411 142.382L349.561 184.243Z" stroke="white" stroke-opacity="0.3" stroke-width="5"/>
<path d="M418.5 192L484.125 234" stroke="url(#paint11_linear)" stroke-opacity="0.5" stroke-width="2"/>
<path d="M764.5 195.5L699 233" stroke="url(#paint12_linear)" stroke-opacity="0.5" stroke-width="2"/>
<path d="M863.119 6L778 54.9059V155.873L785.881 161L787.261 153.975L792.581 150.893L803.22 144.731L824.5 132.406L867.059 107.756V38.1438V23.0579V15.5149L871 11.916V9.94402L863.119 6Z" fill="#CEF3F9"/>
<g filter="url(#filter1_d)">
<path d="M871 10L786 58.8877V161L871 111.718V10Z" fill="white"/>
</g>
<path d="M871 10L786 58.7399V78L871 28.8671V10Z" fill="#5EDBD5"/>
<path d="M789.5 93.1264V82.115L798.5 76.8701V87.8392L789.5 93.1264Z" fill="#1063AA" stroke="#1063AA"/>
<path d="M801.5 86.1044V75.7842L809.5 70.8919V81.1726L801.5 86.1044Z" fill="#1063AA" stroke="#1063AA"/>
<path d="M812.5 80.1264V69.115L821.5 63.8701V74.8392L812.5 80.1264Z" fill="white" stroke="#1063AA"/>
<path d="M824.5 74.1264V63.115L833.5 57.8701V68.8392L824.5 74.1264Z" fill="white" stroke="#1063AA"/>
<path d="M836.5 67.1044V56.7842L844.5 51.8919V62.1726L836.5 67.1044Z" fill="white" stroke="#1063AA"/>
<path d="M847.5 61.1264V50.115L856.5 44.8701V55.8392L847.5 61.1264Z" fill="white" stroke="#1063AA"/>
<path d="M859.5 54.1508V43.7995L868.5 38.8459V49.1573L859.5 54.1508Z" fill="white" stroke="#1063AA"/>
<path d="M789.5 106.151V95.7995L798.5 90.8459V101.157L789.5 106.151Z" fill="white" stroke="#1063AA"/>
<path d="M801.5 100.077V89.0996L809.5 83.9194V94.8546L801.5 100.077Z" fill="white" stroke="#1063AA"/>
<path d="M812.5 93.1508V82.7995L821.5 77.8459V88.1573L812.5 93.1508Z" fill="white" stroke="#1063AA"/>
<path d="M824.5 87.1508V76.7995L833.5 71.8459V82.1573L824.5 87.1508Z" fill="white" stroke="#1063AA"/>
<path d="M836.5 81.0765V70.0996L844.5 64.9194V75.8546L836.5 81.0765Z" fill="white" stroke="#1063AA"/>
<path d="M847.5 74.1508V63.7995L856.5 58.8459V69.1573L847.5 74.1508Z" fill="white" stroke="#1063AA"/>
<path d="M859.5 68.1508V57.7995L868.5 52.8459V63.1573L859.5 68.1508Z" fill="white" stroke="#1063AA"/>
<path d="M789.5 120.126V109.115L798.5 103.87V114.839L789.5 120.126Z" fill="white" stroke="#1063AA"/>
<path d="M801.5 113.104V102.784L809.5 97.8919V108.173L801.5 113.104Z" fill="white" stroke="#1063AA"/>
<path d="M812.5 107.126V96.115L821.5 90.8701V101.839L812.5 107.126Z" fill="white" stroke="#1063AA"/>
<path d="M824.5 100.151V89.7995L833.5 84.8459V95.1573L824.5 100.151Z" fill="white" stroke="#1063AA"/>
<path d="M836.5 94.1044V83.7842L844.5 78.8919V89.1726L836.5 94.1044Z" fill="white" stroke="#1063AA"/>
<path d="M847.5 88.1264V77.115L856.5 71.8701V82.8392L847.5 88.1264Z" fill="white" stroke="#1063AA"/>
<path d="M859.5 81.1508V70.7995L868.5 65.8459V76.1573L859.5 81.1508Z" fill="white" stroke="#1063AA"/>
<path d="M789.5 133.151V122.799L798.5 117.846V128.157L789.5 133.151Z" fill="white" stroke="#1063AA"/>
<path d="M801.5 127.077V116.1L809.5 110.919V121.855L801.5 127.077Z" fill="white" stroke="#1063AA"/>
<path d="M812.5 120.151V109.799L821.5 104.846V115.157L812.5 120.151Z" fill="white" stroke="#1063AA"/>
<path d="M824.5 114.151V103.799L833.5 98.8459V109.157L824.5 114.151Z" fill="white" stroke="#1063AA"/>
<path d="M836.5 108.077V97.0996L844.5 91.9194V102.855L836.5 108.077Z" fill="white" stroke="#1063AA"/>
<path d="M847.5 101.151V90.7995L856.5 85.8459V96.1573L847.5 101.151Z" fill="white" stroke="#1063AA"/>
<path d="M859.5 95.1264V84.115L868.5 78.8701V89.8392L859.5 95.1264Z" fill="white" stroke="#1063AA"/>
<path d="M789.5 147.151V136.799L798.5 131.846V142.157L789.5 147.151Z" fill="white" stroke="#1063AA"/>
<path d="M801.5 141.077V130.1L809.5 124.919V135.855L801.5 141.077Z" fill="white" stroke="#1063AA"/>
<path d="M812.5 135.126V124.115L821.5 118.87V129.839L812.5 135.126Z" fill="white" stroke="#1063AA"/>
<ellipse rx="4.88902" ry="6.74837" transform="matrix(0.856652 0.515894 0.515894 -0.856652 812.461 53.4961)" fill="white"/>
<ellipse rx="4.88902" ry="6.74837" transform="matrix(0.856652 0.515894 0.515894 -0.856652 853.682 28.9209)" fill="white"/>
<path d="M782.486 50.0007C783.054 50.9476 784.283 51.254 785.23 50.6852C786.177 50.1164 786.483 48.8877 785.914 47.9409L782.486 50.0007ZM810.871 52.055C810.35 53.0285 810.716 54.2408 811.689 54.7627C812.663 55.2846 813.875 54.9185 814.397 53.945L810.871 52.055ZM785 43.3776C785 34.0633 791.519 27 799 27V23C788.808 23 781 32.3926 781 43.3776H785ZM799 27C806.481 27 813 34.0633 813 43.3776H817C817 32.3926 809.192 23 799 23V27ZM785.914 47.9409C785.028 46.4651 785 45.0905 785 43.3776H781C781 45.0768 780.972 47.4813 782.486 50.0007L785.914 47.9409ZM813 43.3776C813 46.5784 812.215 49.5492 810.871 52.055L814.397 53.945C816.054 50.8533 817 47.2327 817 43.3776H813Z" fill="#5EDBD5"/>
<path d="M824.45 26.1481C825.021 27.0938 826.25 27.3977 827.196 26.827C828.142 26.2563 828.446 25.027 827.875 24.0813L824.45 26.1481ZM851.947 28.0516C851.423 29.0241 851.787 30.2371 852.76 30.7609C853.732 31.2846 854.945 30.9209 855.469 29.9484L851.947 28.0516ZM827 19.7213C827 10.7787 833.287 4 840.5 4V0C830.592 0 823 9.0895 823 19.7213H827ZM840.5 4C847.713 4 854 10.7787 854 19.7213H858C858 9.0895 850.408 0 840.5 0V4ZM827.875 24.0813C827.028 22.6781 827 21.3729 827 19.7213H823C823 21.3599 822.972 23.6988 824.45 26.1481L827.875 24.0813ZM854 19.7213C854 22.7944 853.243 25.6463 851.947 28.0516L855.469 29.9484C857.08 26.9562 858 23.452 858 19.7213H854Z" fill="#5EDBD5"/>
<path d="M1000.59 262.723L1075 216.191V423L904.388 422.603L904 215L978.108 262.588C984.945 266.978 993.701 267.031 1000.59 262.723Z" fill="url(#paint13_linear)" fill-opacity="0.25"/>
<path d="M999.77 174.251C993.462 170.492 985.601 170.492 979.293 174.251L945.97 194.109L925.998 206.012C924.805 206.722 923.477 207.177 922.098 207.347L904.068 209.563L904.068 217.061C904.068 218.804 904.976 220.422 906.465 221.33L979.152 265.66C985.529 269.549 993.542 269.561 999.93 265.69L1072.59 221.661C1074.09 220.755 1075 219.134 1075 217.385L1075 209.5L1056.98 207.342C1055.59 207.176 1054.25 206.72 1053.05 206.003L1033.09 194.109L999.77 174.251Z" fill="#1063AA"/>
<path d="M979.28 260.39C985.595 264.158 993.468 264.157 999.782 260.387L1069.88 218.527C1076.71 214.45 1076.7 204.559 1069.87 200.491L999.762 158.735C993.458 154.981 985.605 154.979 979.299 158.732L909.14 200.489C902.305 204.557 902.299 214.452 909.13 218.528L979.28 260.39Z" fill="url(#paint14_linear)"/>
<path d="M980.561 258.243C986.086 261.541 992.976 261.54 998.5 258.241L1068.6 216.38C1073.8 213.274 1073.8 205.739 1068.59 202.639L998.483 160.883C992.967 157.598 986.095 157.597 980.578 160.88L910.419 202.637C905.211 205.737 905.207 213.276 910.411 216.382L980.561 258.243Z" stroke="white" stroke-opacity="0.3" stroke-width="5"/>
<path d="M198.589 265.723L273 219.191L272.224 426L102.388 425.603L102 218L176.108 265.588C182.945 269.978 191.701 270.031 198.589 265.723Z" fill="url(#paint15_linear)" fill-opacity="0.25"/>
<path d="M197.77 177.251C191.462 173.492 183.601 173.492 177.293 177.251L143.97 197.109L123.998 209.012C122.805 209.722 121.477 210.177 120.098 210.347L102.068 212.563L102.068 220.061C102.068 221.804 102.976 223.422 104.465 224.33L177.152 268.66C183.529 272.549 191.542 272.561 197.93 268.69L270.591 224.661C272.087 223.755 273 222.134 273 220.385L273 212.5L254.982 210.342C253.592 210.176 252.254 209.72 251.052 209.003L231.094 197.109L197.77 177.251Z" fill="#1063AA"/>
<path d="M177.28 263.39C183.595 267.158 191.468 267.157 197.782 263.387L267.883 221.527C274.71 217.45 274.704 207.559 267.873 203.491L197.762 161.735C191.458 157.981 183.605 157.979 177.299 161.732L107.14 203.489C100.305 207.557 100.299 217.452 107.13 221.528L177.28 263.39Z" fill="url(#paint16_linear)"/>
<path d="M178.561 261.243C184.086 264.541 190.976 264.54 196.5 261.241L266.601 219.38C271.803 216.274 271.799 208.739 266.593 205.639L196.483 163.883C190.967 160.598 184.095 160.597 178.578 163.88L108.419 205.637C103.211 208.737 103.207 216.276 108.411 219.382L178.561 261.243Z" stroke="white" stroke-opacity="0.3" stroke-width="5"/>
<path d="M914.589 388.723L989 342.191L988 489H818V341L892.108 388.588C898.945 392.978 907.701 393.031 914.589 388.723Z" fill="url(#paint17_linear)" fill-opacity="0.25"/>
<path d="M974.5 87.0005C972.888 88.2099 970.313 90.6109 969.131 92.4375C968.514 93.3909 968.581 94.5647 968.741 95.689L969 97.5005C984 88.3338 1014.6 69.9005 1017 69.5005C1020 69.0005 1018.07 67.3951 1016.5 66.5005C1015.39 65.8686 1014.42 65.6691 1013.57 65.6971C1010.75 65.7896 1008.3 67.8592 1006 69.5C1004.17 67.9999 1001.5 64.5 997 64.0004C996.881 63.9872 996.761 63.9764 996.638 63.9679C990.702 63.5571 984.844 67.5315 982.5 73.0005C981.3 75.8005 980.333 81.5003 980.5 84.0003C978.5 84.6669 976.5 85.5 974.5 87.0005Z" fill="#CEF3F9"/>
<path d="M893.28 394.39C899.595 398.158 907.468 398.157 913.782 394.387L983.883 352.527C990.71 348.45 990.704 338.559 983.873 334.491L913.762 292.735C907.458 288.981 899.605 288.979 893.299 292.732L823.14 334.489C816.305 338.557 816.299 348.452 823.13 352.528L893.28 394.39Z" fill="url(#paint18_linear)"/>
<ellipse cx="995.68" cy="83.3837" rx="12.5027" ry="17.6113" fill="#5EDBD5"/>
<path d="M952.367 103.826L1028.52 59.764C1030.07 58.8631 1031.49 58.7886 1032.59 59.3847L1036.48 61.5725C1036.48 61.5725 1035.59 63.0221 1034.86 64.1803C1034.86 64.3158 1034.87 64.4445 1034.87 64.58V176.682C1034.87 181.377 1032.03 186.829 1028.51 188.861L952.975 232.571L952.515 235.673L948.737 233.506C947.082 232.93 946 231.006 946 228.107V116.005C946.007 111.311 948.852 105.858 952.367 103.826Z" fill="#CEF3F9"/>
<g filter="url(#filter2_d)">
<path d="M956.496 235.233L1032.65 191.171C1036.16 189.139 1039.01 183.686 1039.01 178.992V66.8965C1039.01 62.2024 1036.16 60.0416 1032.65 62.0737L956.502 106.136C952.988 108.168 950.143 113.621 950.143 118.315V230.417C950.136 235.111 952.988 237.265 956.496 235.233Z" fill="#5EDBD5"/>
</g>
<path d="M959.064 214.817L1030.09 173.722V73.8867L959.064 114.982V214.817Z" fill="white"/>
<path d="M975.52 112.341L1011.95 91.2613C1014.68 89.683 1016.89 85.4563 1016.89 81.8189V71.9769C1016.89 68.3395 1014.68 66.6665 1011.95 68.2379L975.52 89.3173C972.797 90.8955 970.587 95.1222 970.587 98.7596V108.602C970.593 112.246 972.797 113.919 975.52 112.341Z" fill="#5EDBD5"/>
<path d="M976.811 118.45L966.396 124.472V136.522L976.811 130.5V118.45Z" stroke="#1063AA" stroke-width="2.2913" stroke-miterlimit="10" stroke-linejoin="round"/>
<path d="M976.811 139.901L966.396 145.93V157.98L976.811 151.952V139.901Z" stroke="#1063AA" stroke-width="2.2913" stroke-miterlimit="10" stroke-linejoin="round"/>
<path d="M976.811 161.359L966.396 167.381V179.431L976.811 173.41V161.359Z" stroke="#1063AA" stroke-width="2.2913" stroke-miterlimit="10" stroke-linejoin="round"/>
<path d="M976.811 182.818L966.396 188.84V200.89L976.811 194.862V182.818Z" stroke="#1063AA" stroke-width="2.2913" stroke-miterlimit="10" stroke-linejoin="round"/>
<path d="M983.177 123.969L1020.82 102.817" stroke="#1063AA" stroke-width="2.2913" stroke-miterlimit="10" stroke-linecap="round" stroke-linejoin="round"/>
<path d="M983.442 117.842L1005.35 105.53" stroke="#1063AA" stroke-width="2.2913" stroke-miterlimit="10" stroke-linecap="round" stroke-linejoin="round"/>
<path d="M983.178 146.999L1020.82 125.847" stroke="#1063AA" stroke-width="2.2913" stroke-miterlimit="10" stroke-linecap="round" stroke-linejoin="round"/>
<path d="M983.442 140.871L1005.35 128.559" stroke="#1063AA" stroke-width="2.2913" stroke-miterlimit="10" stroke-linecap="round" stroke-linejoin="round"/>
<path d="M983.178 169.352L1020.82 148.2" stroke="#1063AA" stroke-width="2.2913" stroke-miterlimit="10" stroke-linecap="round" stroke-linejoin="round"/>
<path d="M983.442 163.224L1005.35 150.911" stroke="#1063AA" stroke-width="2.2913" stroke-miterlimit="10" stroke-linecap="round" stroke-linejoin="round"/>
<path d="M983.178 191.027L1020.82 169.875" stroke="#1063AA" stroke-width="2.2913" stroke-miterlimit="10" stroke-linecap="round" stroke-linejoin="round"/>
<path d="M983.443 184.899L1005.35 172.587" stroke="#1063AA" stroke-width="2.2913" stroke-miterlimit="10" stroke-linecap="round" stroke-linejoin="round"/>
<path d="M307 62.9924L391.359 15L396 17.7841V19.6402L391.359 23.8743V32.7486V50.4972V101.903L374.942 118.011L367.844 121.92L363.817 142.273L358.652 140.682L350.308 132.33L344.594 128.609L332.063 135.859L319.531 143.11L313.266 146.735L311.768 155L307 151.818V62.9924Z" fill="#CEF3F9"/>
<g filter="url(#filter3_d)">
<path d="M396 17L312 65.3025V155L354 130.615L363.906 142.237L375 118.423L396 106.231V17Z" fill="white"/>
</g>
<path d="M360.371 77.3556C363.53 73.6137 365.677 68.5223 365.677 64.1057C365.677 57.7567 361.199 55.1804 355.709 58.3395C350.188 61.5293 345.741 69.2584 345.741 75.6073C345.741 79.9933 347.857 82.5697 351.016 82.723C342.735 88.6426 336.294 100.482 336.294 110.358V114.498L355.586 103.365L374.878 92.2311V88.0905C374.909 78.2757 368.56 73.8591 360.371 77.3556Z" fill="#1063AA"/>
<path d="M220.695 122L134 169.586V232.241L141.881 237L145.034 231.845L147.792 227.483L159.22 220.642L180.5 208.25L223.059 183.466V153.129V137.961V130.377L227 126.759V125.172L220.695 122Z" fill="#CEF3F9"/>
<path d="M227 125L142 174.248V237L227 187.355V125Z" fill="white"/>
<g filter="url(#filter4_dd)">
<path d="M174.662 184.373L142 237L227 187.163L197.093 176L174.662 184.373Z" fill="white"/>
</g>
<path d="M85.2796 396.39C91.5946 400.158 99.4682 400.157 105.782 396.387L175.883 354.527C182.71 350.45 182.704 340.559 175.873 336.491L105.762 294.735C99.4582 290.981 91.6045 290.979 85.2995 294.732L15.1401 336.489C8.30486 340.557 8.29912 350.452 15.1296 354.528L85.2796 396.39Z" fill="url(#paint19_linear)"/>
<path d="M189.56 189L142 173.988L227 125L189.56 189Z" fill="#81E5DD"/>
<path d="M930.5 245L747.5 352.5L707 331" stroke="url(#paint20_linear)" stroke-opacity="0.5" stroke-width="2"/>
<path d="M246 245L429 352.5L469.5 331" stroke="url(#paint21_linear)" stroke-opacity="0.5" stroke-width="2"/>
<path d="M106.589 390.723L181 344.191L180 489H10V343L84.1082 390.588C90.9449 394.978 99.7006 395.031 106.589 390.723Z" fill="url(#paint22_linear)"/>
<path d="M316.845 447.311L340 433.475L339.602 489H272V433L295.082 447.178C301.745 451.271 310.132 451.323 316.845 447.311Z" fill="url(#paint23_linear)"/>
<path d="M302.978 453.914C304.873 455.044 307.235 455.044 309.129 453.913L338.324 436.479C340.925 434.926 340.923 431.158 338.32 429.608L309.123 412.22C307.232 411.093 304.876 411.093 302.984 412.219L274.344 429.265C271.48 430.969 271.478 435.116 274.34 436.824L302.978 453.914Z" fill="url(#paint24_linear)"/>
<path d="M1093.92 419.096L1145 389.5V489H1022V389.5L1072.83 419.076C1079.35 422.868 1087.4 422.876 1093.92 419.096Z" fill="url(#paint25_linear)"/>
<path d="M1080.54 426.312C1082.43 427.443 1084.79 427.442 1086.69 426.311L1143.36 392.47C1145.54 391.17 1145.54 388.014 1143.36 386.716L1086.68 352.962C1084.79 351.836 1082.43 351.836 1080.54 352.962L1023.61 386.844C1021.53 388.084 1021.53 391.1 1023.61 392.342L1080.54 426.312Z" fill="url(#paint26_linear)"/>
<circle r="2.5" transform="matrix(-1 0 0 1 470.5 330.5)" fill="#82B5CE"/>
<circle cx="483.5" cy="233.5" r="2.5" fill="#82B5CE"/>
<circle r="2.5" transform="matrix(-1 0 0 1 697.5 233.5)" fill="#82B5CE"/>
<circle r="2.5" transform="matrix(-1 0 0 1 706.5 330.5)" fill="#82B5CE"/>
<defs>
<filter id="filter0_d" x="506.156" y="139.753" width="164.77" height="157.413" filterUnits="userSpaceOnUse" color-interpolation-filters="sRGB">
<feFlood flood-opacity="0" result="BackgroundImageFix"/>
<feColorMatrix in="SourceAlpha" type="matrix" values="0 0 0 0 0 0 0 0 0 0 0 0 0 0 0 0 0 0 127 0"/>
<feOffset dy="4"/>
<feGaussianBlur stdDeviation="2"/>
<feColorMatrix type="matrix" values="0 0 0 0 0 0 0 0 0 0 0 0 0 0 0 0 0 0 0.25 0"/>
<feBlend mode="normal" in2="BackgroundImageFix" result="effect1_dropShadow"/>
<feBlend mode="normal" in="SourceGraphic" in2="effect1_dropShadow" result="shape"/>
</filter>
<filter id="filter1_d" x="784" y="10" width="93" height="159" filterUnits="userSpaceOnUse" color-interpolation-filters="sRGB">
<feFlood flood-opacity="0" result="BackgroundImageFix"/>
<feColorMatrix in="SourceAlpha" type="matrix" values="0 0 0 0 0 0 0 0 0 0 0 0 0 0 0 0 0 0 127 0"/>
<feOffset dx="2" dy="4"/>
<feGaussianBlur stdDeviation="2"/>
<feColorMatrix type="matrix" values="0 0 0 0 0 0 0 0 0 0 0 0 0 0 0 0 0 0 0.25 0"/>
<feBlend mode="normal" in2="BackgroundImageFix" result="effect1_dropShadow"/>
<feBlend mode="normal" in="SourceGraphic" in2="effect1_dropShadow" result="shape"/>
</filter>
<filter id="filter2_d" x="950.143" y="61.3096" width="96.864" height="182.689" filterUnits="userSpaceOnUse" color-interpolation-filters="sRGB">
<feFlood flood-opacity="0" result="BackgroundImageFix"/>
<feColorMatrix in="SourceAlpha" type="matrix" values="0 0 0 0 0 0 0 0 0 0 0 0 0 0 0 0 0 0 127 0"/>
<feOffset dx="4" dy="4"/>
<feGaussianBlur stdDeviation="2"/>
<feColorMatrix type="matrix" values="0 0 0 0 0 0 0 0 0 0 0 0 0 0 0 0 0 0 0.25 0"/>
<feBlend mode="normal" in2="BackgroundImageFix" result="effect1_dropShadow"/>
<feBlend mode="normal" in="SourceGraphic" in2="effect1_dropShadow" result="shape"/>
</filter>
<filter id="filter3_d" x="308" y="17" width="92" height="146" filterUnits="userSpaceOnUse" color-interpolation-filters="sRGB">
<feFlood flood-opacity="0" result="BackgroundImageFix"/>
<feColorMatrix in="SourceAlpha" type="matrix" values="0 0 0 0 0 0 0 0 0 0 0 0 0 0 0 0 0 0 127 0"/>
<feOffset dy="4"/>
<feGaussianBlur stdDeviation="2"/>
<feColorMatrix type="matrix" values="0 0 0 0 0 0 0 0 0 0 0 0 0 0 0 0 0 0 0.25 0"/>
<feBlend mode="normal" in2="BackgroundImageFix" result="effect1_dropShadow"/>
<feBlend mode="normal" in="SourceGraphic" in2="effect1_dropShadow" result="shape"/>
</filter>
<filter id="filter4_dd" x="138" y="168" width="93" height="77" filterUnits="userSpaceOnUse" color-interpolation-filters="sRGB">
<feFlood flood-opacity="0" result="BackgroundImageFix"/>
<feColorMatrix in="SourceAlpha" type="matrix" values="0 0 0 0 0 0 0 0 0 0 0 0 0 0 0 0 0 0 127 0"/>
<feOffset dy="-4"/>
<feGaussianBlur stdDeviation="2"/>
<feColorMatrix type="matrix" values="0 0 0 0 0 0 0 0 0 0 0 0 0 0 0 0 0 0 0.05 0"/>
<feBlend mode="normal" in2="BackgroundImageFix" result="effect1_dropShadow"/>
<feColorMatrix in="SourceAlpha" type="matrix" values="0 0 0 0 0 0 0 0 0 0 0 0 0 0 0 0 0 0 127 0"/>
<feOffset dy="4"/>
<feGaussianBlur stdDeviation="2"/>
<feColorMatrix type="matrix" values="0 0 0 0 0 0 0 0 0 0 0 0 0 0 0 0 0 0 0.25 0"/>
<feBlend mode="normal" in2="effect1_dropShadow" result="effect2_dropShadow"/>
<feBlend mode="normal" in="SourceGraphic" in2="effect2_dropShadow" result="shape"/>
</filter>
<linearGradient id="paint0_linear" x1="1111" y1="294" x2="1111" y2="375.514" gradientUnits="userSpaceOnUse">
<stop stop-color="#87F5E7"/>
<stop offset="1" stop-color="#87F5E7" stop-opacity="0"/>
</linearGradient>
<linearGradient id="paint1_linear" x1="1128.71" y1="312.825" x2="1085.42" y2="278.505" gradientUnits="userSpaceOnUse">
<stop stop-color="#0381AD"/>
<stop offset="1" stop-color="#1E9CBC"/>
</linearGradient>
<linearGradient id="paint2_linear" x1="588.5" y1="260" x2="588.5" y2="489" gradientUnits="userSpaceOnUse">
<stop stop-color="#36D7B7"/>
<stop offset="1" stop-color="#87F5E7" stop-opacity="0"/>
</linearGradient>
<linearGradient id="paint3_linear" x1="528.599" y1="311.869" x2="669.274" y2="200.333" gradientUnits="userSpaceOnUse">
<stop stop-color="#36D7B7"/>
<stop offset="1" stop-color="#7EFFE5"/>
</linearGradient>
<linearGradient id="paint4_linear" x1="634.53" y1="217.329" x2="563.892" y2="236.115" gradientUnits="userSpaceOnUse">
<stop stop-color="#2573BA"/>
<stop offset="0.907" stop-color="#0364AE"/>
<stop offset="1" stop-color="#0063AD"/>
</linearGradient>
<linearGradient id="paint5_linear" x1="628.738" y1="193.213" x2="657.198" y2="194.32" gradientUnits="userSpaceOnUse">
<stop stop-color="#0063AD"/>
<stop offset="1" stop-color="#2573BA"/>
</linearGradient>
<linearGradient id="paint6_linear" x1="656.581" y1="214.693" x2="609.765" y2="212.872" gradientUnits="userSpaceOnUse">
<stop stop-color="#65E6D4"/>
<stop offset="1" stop-color="#5EDBD5"/>
</linearGradient>
<linearGradient id="paint7_linear" x1="818.5" y1="141" x2="818.5" y2="349" gradientUnits="userSpaceOnUse">
<stop stop-color="#87F5E7"/>
<stop offset="1" stop-color="#87F5E7" stop-opacity="0"/>
</linearGradient>
<linearGradient id="paint8_linear" x1="865.831" y1="183.126" x2="754.85" y2="95.1342" gradientUnits="userSpaceOnUse">
<stop stop-color="#5EDBD5"/>
<stop offset="1" stop-color="#92FCEC"/>
</linearGradient>
<linearGradient id="paint9_linear" x1="358.5" y1="141" x2="358.5" y2="349" gradientUnits="userSpaceOnUse">
<stop stop-color="#87F5E7"/>
<stop offset="1" stop-color="#87F5E7" stop-opacity="0"/>
</linearGradient>
<linearGradient id="paint10_linear" x1="405.831" y1="183.126" x2="294.85" y2="95.1342" gradientUnits="userSpaceOnUse">
<stop stop-color="#5EDBD5"/>
<stop offset="1" stop-color="#92FCEC"/>
</linearGradient>
<linearGradient id="paint11_linear" x1="481.345" y1="228.116" x2="422.865" y2="194.367" gradientUnits="userSpaceOnUse">
<stop stop-color="white"/>
<stop offset="1" stop-color="white" stop-opacity="0"/>
</linearGradient>
<linearGradient id="paint12_linear" x1="698.656" y1="228.116" x2="757.135" y2="194.367" gradientUnits="userSpaceOnUse">
<stop stop-color="white"/>
<stop offset="1" stop-color="white" stop-opacity="0"/>
</linearGradient>
<linearGradient id="paint13_linear" x1="989.5" y1="215" x2="989.5" y2="423" gradientUnits="userSpaceOnUse">
<stop stop-color="#87F5E7"/>
<stop offset="1" stop-color="#87F5E7" stop-opacity="0"/>
</linearGradient>
<linearGradient id="paint14_linear" x1="1036.83" y1="257.126" x2="925.85" y2="169.134" gradientUnits="userSpaceOnUse">
<stop stop-color="#5EDBD5"/>
<stop offset="1" stop-color="#92FCEC"/>
</linearGradient>
<linearGradient id="paint15_linear" x1="187.5" y1="218" x2="187.5" y2="426" gradientUnits="userSpaceOnUse">
<stop stop-color="#87F5E7"/>
<stop offset="1" stop-color="#87F5E7" stop-opacity="0"/>
</linearGradient>
<linearGradient id="paint16_linear" x1="234.831" y1="260.126" x2="123.85" y2="172.134" gradientUnits="userSpaceOnUse">
<stop stop-color="#5EDBD5"/>
<stop offset="1" stop-color="#92FCEC"/>
</linearGradient>
<linearGradient id="paint17_linear" x1="903.5" y1="341" x2="903.5" y2="549" gradientUnits="userSpaceOnUse">
<stop stop-color="#87F5E7"/>
<stop offset="1" stop-color="#87F5E7" stop-opacity="0"/>
</linearGradient>
<linearGradient id="paint18_linear" x1="950.831" y1="391.126" x2="839.85" y2="303.134" gradientUnits="userSpaceOnUse">
<stop stop-color="#0381AD"/>
<stop offset="1" stop-color="#1E9CBC"/>
</linearGradient>
<linearGradient id="paint19_linear" x1="142.831" y1="393.126" x2="31.8499" y2="305.134" gradientUnits="userSpaceOnUse">
<stop stop-color="#0381AD"/>
<stop offset="1" stop-color="#1E9CBC"/>
</linearGradient>
<linearGradient id="paint20_linear" x1="712" y1="331" x2="913" y2="260" gradientUnits="userSpaceOnUse">
<stop stop-color="white"/>
<stop offset="1" stop-color="white" stop-opacity="0"/>
</linearGradient>
<linearGradient id="paint21_linear" x1="464.5" y1="331" x2="263.5" y2="260" gradientUnits="userSpaceOnUse">
<stop stop-color="white"/>
<stop offset="1" stop-color="white" stop-opacity="0"/>
</linearGradient>
<linearGradient id="paint22_linear" x1="95.5" y1="343" x2="95.5" y2="551" gradientUnits="userSpaceOnUse">
<stop stop-color="#1D7DA3"/>
<stop offset="1" stop-color="#045C91" stop-opacity="0"/>
</linearGradient>
<linearGradient id="paint23_linear" x1="306" y1="432" x2="306" y2="514.919" gradientUnits="userSpaceOnUse">
<stop stop-color="#1D7DA3"/>
<stop offset="1" stop-color="#045C91" stop-opacity="0"/>
</linearGradient>
<linearGradient id="paint24_linear" x1="324.895" y1="452.012" x2="280.687" y2="416.961" gradientUnits="userSpaceOnUse">
<stop stop-color="#0381AD"/>
<stop offset="1" stop-color="#1E9CBC"/>
</linearGradient>
<linearGradient id="paint25_linear" x1="1083.5" y1="388.31" x2="1083.5" y2="528.415" gradientUnits="userSpaceOnUse">
<stop stop-color="#1D7DA3"/>
<stop offset="1" stop-color="#045C91" stop-opacity="0"/>
</linearGradient>
<linearGradient id="paint26_linear" x1="1115.6" y1="421.802" x2="1040.54" y2="362.289" gradientUnits="userSpaceOnUse">
<stop stop-color="#0381AD"/>
<stop offset="1" stop-color="#1E9CBC"/>
</linearGradient>
<clipPath id="clip0">
<rect width="52.0851" height="67.7106" fill="white" transform="matrix(-0.999244 -0.038872 -0.038872 0.999244 657.469 191.888)"/>
</clipPath>
</defs>
</svg>
