<svg width="18" height="18" viewBox="0 0 18 18" fill="none" xmlns="http://www.w3.org/2000/svg">
<g clip-path="url(#clip0)">
<path d="M4.08981 5.98828H0.222656V17.6014H4.08981V5.98828Z" fill="#222222"/>
<path d="M16.781 7.04896C15.9686 6.16221 14.8942 5.71875 13.5584 5.71875C13.0662 5.71875 12.6188 5.77929 12.2164 5.90046C11.8141 6.02154 11.4743 6.19143 11.1969 6.41021C10.9196 6.62898 10.6988 6.83207 10.5349 7.01949C10.379 7.1975 10.2265 7.40486 10.0778 7.63944V5.98809H6.22217L6.23399 6.55066C6.24191 6.92578 6.24581 8.08195 6.24581 10.0194C6.24581 11.9569 6.23801 14.4842 6.22233 17.6014H10.0778V11.1208C10.0778 10.7225 10.1205 10.4061 10.2066 10.1715C10.3708 9.77291 10.6186 9.43917 10.9508 9.16975C11.283 8.89999 11.695 8.76524 12.1873 8.76524C12.859 8.76524 13.3533 8.99764 13.6698 9.46248C13.9861 9.92728 14.1443 10.5699 14.1443 11.3902V17.601H17.9998V10.9452C17.9995 9.23411 17.5935 7.93542 16.781 7.04896Z" fill="#222222"/>
<path d="M2.17965 0.398438C1.53129 0.398438 1.00595 0.588027 0.603494 0.966838C0.201083 1.34573 0 1.82408 0 2.40233C0 2.97249 0.195295 3.4492 0.585927 3.83191C0.976435 4.21466 1.49213 4.40614 2.13273 4.40614H2.15617C2.81249 4.40614 3.34186 4.21482 3.74414 3.83191C4.14643 3.4492 4.34366 2.97266 4.3359 2.40233C4.3281 1.82412 4.12874 1.34573 3.73823 0.966838C3.34777 0.587863 2.82805 0.398438 2.17965 0.398438Z" fill="#222222"/>
</g>
<defs>
<clipPath id="clip0">
<rect width="18" height="18" fill="white"/>
</clipPath>
</defs>
</svg>
