<svg width="18" height="18" viewBox="0 0 18 18" fill="none" xmlns="http://www.w3.org/2000/svg">
<path d="M4.62353 16.5938H2.13422C1.83405 16.5938 1.65296 16.4262 1.57175 16.3264C1.43155 16.1539 1.37723 15.9294 1.42283 15.7104C2.15299 12.2032 5.24815 9.64192 8.82129 9.55881C8.88081 9.56102 8.94047 9.5625 9.00048 9.5625C9.06102 9.5625 9.12121 9.56099 9.18125 9.55874C10.055 9.57867 10.9084 9.74296 11.7208 10.048C12.0843 10.1846 12.4897 10.0005 12.6262 9.63693C12.7627 9.27341 12.5787 8.86802 12.2151 8.73151C12.0987 8.68778 11.9815 8.64686 11.8637 8.60804C13.0275 7.73511 13.7817 6.34461 13.7817 4.78125C13.7817 2.14488 11.6369 0 9.00048 0C6.36408 0 4.21923 2.14488 4.21923 4.78125C4.21923 6.34602 4.97481 7.73761 6.14027 8.6104C5.07254 8.96189 4.07059 9.5085 3.19372 10.2298C1.58596 11.5522 0.468092 13.3969 0.0461119 15.4239C-0.0861459 16.059 0.0722681 16.7113 0.480749 17.2136C0.887155 17.7134 1.48984 18 2.13422 18H4.62353C5.01186 18 5.32665 17.6852 5.32665 17.2969C5.32665 16.9085 5.01186 16.5938 4.62353 16.5938ZM5.62548 4.78125C5.62548 2.92025 7.13948 1.40625 9.00048 1.40625C10.8615 1.40625 12.3755 2.92025 12.3755 4.78125C12.3755 6.58712 10.9498 8.06618 9.1648 8.15221C9.11006 8.15122 9.05532 8.15038 9.00048 8.15038C8.94549 8.15038 8.89055 8.15119 8.83563 8.15217C7.05092 8.0659 5.62548 6.58695 5.62548 4.78125Z" fill="#1063AA"/>
<path d="M17.4617 12.1151C17.1608 11.4418 16.4828 11.0056 15.7329 11.0039H13.5401C13.5385 11.0039 13.5371 11.0039 13.5355 11.0039C12.7444 11.0039 12.0543 11.4701 11.7766 12.1924C11.7397 12.2886 11.6945 12.4096 11.6474 12.5508H7.04378C6.85369 12.5508 6.67172 12.6277 6.53929 12.7641L5.33146 14.0082C5.06543 14.2822 5.06677 14.7185 5.33445 14.9908L6.56492 16.2428C6.69711 16.3773 6.87781 16.4531 7.06639 16.4531H9.35154C9.73988 16.4531 10.0547 16.1383 10.0547 15.75C10.0547 15.3616 9.73988 15.0468 9.35154 15.0468H7.36121L6.81882 14.495L7.34113 13.957H12.1748C12.4987 13.957 12.7807 13.7357 12.8577 13.4211C12.9146 13.1888 12.986 12.9655 13.0892 12.697C13.1573 12.52 13.3282 12.4102 13.5371 12.4102C13.5376 12.4102 13.5381 12.4102 13.5385 12.4102H15.7312C15.9301 12.4106 16.1012 12.5175 16.1779 12.689C16.3667 13.1113 16.592 13.7651 16.5937 14.4815C16.5954 15.2032 16.3703 15.872 16.181 16.3059C16.1047 16.4809 15.9322 16.5937 15.7395 16.5937C15.7391 16.5937 15.7387 16.5937 15.7383 16.5937H13.5191C13.3246 16.5933 13.1423 16.4681 13.0657 16.2823C12.9835 16.083 12.9122 15.8553 12.8478 15.5863C12.7574 15.2087 12.3779 14.9758 12.0004 15.0662C11.6227 15.1566 11.3898 15.536 11.4802 15.9137C11.5618 16.2546 11.6552 16.5506 11.7657 16.8185C12.061 17.5344 12.748 17.9982 13.5175 18H15.7367C15.7382 18 15.7396 18 15.7411 18C16.4917 17.9999 17.1701 17.5559 17.4701 16.8679C17.7131 16.3106 18.0023 15.4437 18 14.4782C17.9977 13.5153 17.706 12.6616 17.4617 12.1151Z" fill="#36D7B7"/>
<path d="M15.1523 15.1875C15.5407 15.1875 15.8555 14.8727 15.8555 14.4844C15.8555 14.096 15.5407 13.7812 15.1523 13.7812C14.764 13.7812 14.4492 14.096 14.4492 14.4844C14.4492 14.8727 14.764 15.1875 15.1523 15.1875Z" fill="#36D7B7"/>
</svg>
