<svg width="114" height="42" viewBox="0 0 114 42" fill="none" xmlns="http://www.w3.org/2000/svg">
<path d="M67.0779 26.9222C63.8071 34.1448 55.3006 37.3484 48.078 34.0776C40.8553 30.8069 37.6517 22.3003 40.9225 15.0777C44.1933 7.85508 52.6998 4.65147 59.9224 7.92223C63.5337 9.55761 66.1403 12.5019 67.4352 15.9403" stroke="#5EDBD5" stroke-width="3" stroke-linecap="round"/>
<path d="M53.4688 26.998H45.6719V25.4512L49.3516 21.5293C49.8568 20.9772 50.2292 20.4954 50.4688 20.084C50.7135 19.6725 50.8359 19.2819 50.8359 18.9121C50.8359 18.4069 50.7083 18.0111 50.4531 17.7246C50.1979 17.4329 49.8333 17.2871 49.3594 17.2871C48.849 17.2871 48.4453 17.4642 48.1484 17.8184C47.8568 18.1673 47.7109 18.6283 47.7109 19.2012H45.4453C45.4453 18.5085 45.6094 17.8757 45.9375 17.3027C46.2708 16.7298 46.7396 16.2819 47.3438 15.959C47.9479 15.6309 48.6328 15.4668 49.3984 15.4668C50.5703 15.4668 51.4792 15.748 52.125 16.3105C52.776 16.873 53.1016 17.6673 53.1016 18.6934C53.1016 19.2559 52.9557 19.8288 52.6641 20.4121C52.3724 20.9954 51.8724 21.6751 51.1641 22.4512L48.5781 25.1777H53.4688V26.998ZM61.5391 22.7168H62.8281V24.5371H61.5391V26.998H59.2812V24.5371H54.6172L54.5156 23.1152L59.2578 15.623H61.5391V22.7168ZM56.7656 22.7168H59.2812V18.7012L59.1328 18.959L56.7656 22.7168Z" fill="#222222"/>
<path d="M71.125 26.2422C71.125 25.9922 71.1979 25.7839 71.3438 25.6172C71.4948 25.4505 71.7188 25.3672 72.0156 25.3672C72.3125 25.3672 72.5365 25.4505 72.6875 25.6172C72.8438 25.7839 72.9219 25.9922 72.9219 26.2422C72.9219 26.4818 72.8438 26.6823 72.6875 26.8438C72.5365 27.0052 72.3125 27.0859 72.0156 27.0859C71.7188 27.0859 71.4948 27.0052 71.3438 26.8438C71.1979 26.6823 71.125 26.4818 71.125 26.2422ZM78.7031 25.9766C79.2188 25.9766 79.6693 25.8203 80.0547 25.5078C80.4401 25.1953 80.6536 24.8047 80.6953 24.3359H82.0625C82.0365 24.8203 81.8698 25.2812 81.5625 25.7188C81.2552 26.1562 80.8438 26.5052 80.3281 26.7656C79.8177 27.026 79.276 27.1562 78.7031 27.1562C77.5521 27.1562 76.6354 26.7734 75.9531 26.0078C75.276 25.237 74.9375 24.1849 74.9375 22.8516V22.6094C74.9375 21.7865 75.0885 21.0547 75.3906 20.4141C75.6927 19.7734 76.125 19.276 76.6875 18.9219C77.2552 18.5677 77.9245 18.3906 78.6953 18.3906C79.6432 18.3906 80.4297 18.6745 81.0547 19.2422C81.6849 19.8099 82.0208 20.5469 82.0625 21.4531H80.6953C80.6536 20.9062 80.4453 20.4583 80.0703 20.1094C79.7005 19.7552 79.2422 19.5781 78.6953 19.5781C77.9609 19.5781 77.3906 19.8438 76.9844 20.375C76.5833 20.901 76.3828 21.6641 76.3828 22.6641V22.9375C76.3828 23.9115 76.5833 24.6615 76.9844 25.1875C77.3854 25.7135 77.9583 25.9766 78.7031 25.9766ZM85.2578 27H83.8125V15H85.2578V27ZM87.1953 22.6953C87.1953 21.8672 87.3568 21.1224 87.6797 20.4609C88.0078 19.7995 88.4609 19.2891 89.0391 18.9297C89.6224 18.5703 90.2865 18.3906 91.0312 18.3906C92.1823 18.3906 93.112 18.7891 93.8203 19.5859C94.5339 20.3828 94.8906 21.4427 94.8906 22.7656V22.8672C94.8906 23.6901 94.7318 24.4297 94.4141 25.0859C94.1016 25.737 93.651 26.2448 93.0625 26.6094C92.4792 26.974 91.8073 27.1562 91.0469 27.1562C89.901 27.1562 88.9714 26.7578 88.2578 25.9609C87.5495 25.1641 87.1953 24.1094 87.1953 22.7969V22.6953ZM88.6484 22.8672C88.6484 23.8047 88.8646 24.5573 89.2969 25.125C89.7344 25.6927 90.3177 25.9766 91.0469 25.9766C91.7812 25.9766 92.3646 25.6901 92.7969 25.1172C93.2292 24.5391 93.4453 23.7318 93.4453 22.6953C93.4453 21.7682 93.224 21.0182 92.7812 20.4453C92.3438 19.8672 91.7604 19.5781 91.0312 19.5781C90.3177 19.5781 89.7422 19.862 89.3047 20.4297C88.8672 20.9974 88.6484 21.8099 88.6484 22.8672ZM101.922 26.1641C101.359 26.8255 100.534 27.1562 99.4453 27.1562C98.5443 27.1562 97.8568 26.8958 97.3828 26.375C96.9141 25.849 96.6771 25.0729 96.6719 24.0469V18.5469H98.1172V24.0078C98.1172 25.2891 98.638 25.9297 99.6797 25.9297C100.784 25.9297 101.518 25.5182 101.883 24.6953V18.5469H103.328V27H101.953L101.922 26.1641ZM105.18 22.7031C105.18 21.4062 105.487 20.3646 106.102 19.5781C106.716 18.7865 107.521 18.3906 108.516 18.3906C109.505 18.3906 110.289 18.7292 110.867 19.4062V15H112.312V27H110.984L110.914 26.0938C110.336 26.8021 109.531 27.1562 108.5 27.1562C107.521 27.1562 106.721 26.7552 106.102 25.9531C105.487 25.151 105.18 24.1042 105.18 22.8125V22.7031ZM106.625 22.8672C106.625 23.8255 106.823 24.5755 107.219 25.1172C107.615 25.6589 108.161 25.9297 108.859 25.9297C109.776 25.9297 110.445 25.5182 110.867 24.6953V20.8125C110.435 20.0156 109.771 19.6172 108.875 19.6172C108.167 19.6172 107.615 19.8906 107.219 20.4375C106.823 20.9844 106.625 21.7943 106.625 22.8672Z" fill="#222222"/>
<path d="M10.7754 16.3369H6.85547V26.998H4.21875V16.3369H0.351562V14.2012H10.7754V16.3369ZM16.8838 19.8701C16.5381 19.8232 16.2334 19.7998 15.9697 19.7998C15.0088 19.7998 14.3789 20.125 14.0801 20.7754V26.998H11.54V17.4883H13.9395L14.0098 18.6221C14.5195 17.749 15.2256 17.3125 16.1279 17.3125C16.4092 17.3125 16.6729 17.3506 16.9189 17.4268L16.8838 19.8701ZM22.3154 27.1738C20.9209 27.1738 19.7842 26.7461 18.9053 25.8906C18.0322 25.0352 17.5957 23.8955 17.5957 22.4717V22.2256C17.5957 21.2705 17.7803 20.418 18.1494 19.668C18.5186 18.9121 19.04 18.332 19.7139 17.9277C20.3936 17.5176 21.167 17.3125 22.0342 17.3125C23.335 17.3125 24.3574 17.7227 25.1016 18.543C25.8516 19.3633 26.2266 20.5264 26.2266 22.0322V23.0693H20.1709C20.2529 23.6904 20.499 24.1885 20.9092 24.5635C21.3252 24.9385 21.8496 25.126 22.4824 25.126C23.4609 25.126 24.2256 24.7715 24.7764 24.0625L26.0244 25.46C25.6436 25.999 25.1279 26.4209 24.4775 26.7256C23.8271 27.0244 23.1064 27.1738 22.3154 27.1738ZM22.0254 19.3691C21.5215 19.3691 21.1113 19.5391 20.7949 19.8789C20.4844 20.2188 20.2852 20.7051 20.1973 21.3379H23.7305V21.1357C23.7188 20.5732 23.5664 20.1396 23.2734 19.835C22.9805 19.5244 22.5645 19.3691 22.0254 19.3691ZM27.2812 22.1553C27.2812 21.2119 27.4629 20.3711 27.8262 19.6328C28.1895 18.8945 28.7109 18.3232 29.3906 17.9189C30.0762 17.5146 30.8701 17.3125 31.7725 17.3125C33.0557 17.3125 34.1016 17.7051 34.9102 18.4902C35.7246 19.2754 36.1787 20.3418 36.2725 21.6895L36.29 22.3398C36.29 23.7988 35.8828 24.9707 35.0684 25.8555C34.2539 26.7344 33.1611 27.1738 31.79 27.1738C30.4189 27.1738 29.3232 26.7344 28.5029 25.8555C27.6885 24.9766 27.2812 23.7812 27.2812 22.2695V22.1553ZM29.8213 22.3398C29.8213 23.2422 29.9912 23.9336 30.3311 24.4141C30.6709 24.8887 31.1572 25.126 31.79 25.126C32.4053 25.126 32.8857 24.8916 33.2314 24.4229C33.5771 23.9482 33.75 23.1924 33.75 22.1553C33.75 21.2705 33.5771 20.585 33.2314 20.0986C32.8857 19.6123 32.3994 19.3691 31.7725 19.3691C31.1514 19.3691 30.6709 19.6123 30.3311 20.0986C29.9912 20.5791 29.8213 21.3262 29.8213 22.3398Z" fill="#222222"/>
<path d="M69.0603 19.5202L70.5863 13.1762L63.1104 16.6022L69.0603 19.5202Z" fill="#5EDBD5"/>
</svg>
