<svg width="114" height="42" viewBox="0 0 114 42" fill="none" xmlns="http://www.w3.org/2000/svg">
<path d="M69.0603 19.5192L70.5863 13.1752L63.1104 16.6013L69.0603 19.5192Z" fill="#5EDBD5"/>
<path d="M67.0779 26.9222C63.8071 34.1448 55.3006 37.3484 48.078 34.0776C40.8553 30.8069 37.6517 22.3003 40.9225 15.0777C44.1933 7.85508 52.6998 4.65147 59.9224 7.92223C63.5337 9.55761 66.1403 12.5019 67.4352 15.9403" stroke="#5EDBD5" stroke-width="3" stroke-linecap="round"/>
<path d="M53.4688 26.999H45.6719V25.4521L49.3516 21.5303C49.8568 20.9782 50.2292 20.4964 50.4688 20.085C50.7135 19.6735 50.8359 19.2829 50.8359 18.9131C50.8359 18.4079 50.7083 18.012 50.4531 17.7256C50.1979 17.4339 49.8333 17.2881 49.3594 17.2881C48.849 17.2881 48.4453 17.4652 48.1484 17.8193C47.8568 18.1683 47.7109 18.6292 47.7109 19.2021H45.4453C45.4453 18.5094 45.6094 17.8766 45.9375 17.3037C46.2708 16.7308 46.7396 16.2829 47.3438 15.96C47.9479 15.6318 48.6328 15.4678 49.3984 15.4678C50.5703 15.4678 51.4792 15.749 52.125 16.3115C52.776 16.874 53.1016 17.6683 53.1016 18.6943C53.1016 19.2568 52.9557 19.8298 52.6641 20.4131C52.3724 20.9964 51.8724 21.6761 51.1641 22.4521L48.5781 25.1787H53.4688V26.999ZM61.5391 22.7178H62.8281V24.5381H61.5391V26.999H59.2812V24.5381H54.6172L54.5156 23.1162L59.2578 15.624H61.5391V22.7178ZM56.7656 22.7178H59.2812V18.7021L59.1328 18.96L56.7656 22.7178Z" fill="white"/>
<path d="M71.125 26.2412C71.125 25.9912 71.1979 25.7829 71.3438 25.6162C71.4948 25.4495 71.7188 25.3662 72.0156 25.3662C72.3125 25.3662 72.5365 25.4495 72.6875 25.6162C72.8438 25.7829 72.9219 25.9912 72.9219 26.2412C72.9219 26.4808 72.8438 26.6813 72.6875 26.8428C72.5365 27.0042 72.3125 27.085 72.0156 27.085C71.7188 27.085 71.4948 27.0042 71.3438 26.8428C71.1979 26.6813 71.125 26.4808 71.125 26.2412ZM78.7031 25.9756C79.2188 25.9756 79.6693 25.8193 80.0547 25.5068C80.4401 25.1943 80.6536 24.8037 80.6953 24.335H82.0625C82.0365 24.8193 81.8698 25.2803 81.5625 25.7178C81.2552 26.1553 80.8438 26.5042 80.3281 26.7646C79.8177 27.0251 79.276 27.1553 78.7031 27.1553C77.5521 27.1553 76.6354 26.7725 75.9531 26.0068C75.276 25.236 74.9375 24.1839 74.9375 22.8506V22.6084C74.9375 21.7855 75.0885 21.0537 75.3906 20.4131C75.6927 19.7725 76.125 19.2751 76.6875 18.9209C77.2552 18.5667 77.9245 18.3896 78.6953 18.3896C79.6432 18.3896 80.4297 18.6735 81.0547 19.2412C81.6849 19.8089 82.0208 20.5459 82.0625 21.4521H80.6953C80.6536 20.9053 80.4453 20.4574 80.0703 20.1084C79.7005 19.7542 79.2422 19.5771 78.6953 19.5771C77.9609 19.5771 77.3906 19.8428 76.9844 20.374C76.5833 20.9001 76.3828 21.6631 76.3828 22.6631V22.9365C76.3828 23.9105 76.5833 24.6605 76.9844 25.1865C77.3854 25.7126 77.9583 25.9756 78.7031 25.9756ZM85.2578 26.999H83.8125V14.999H85.2578V26.999ZM87.1953 22.6943C87.1953 21.8662 87.3568 21.1214 87.6797 20.46C88.0078 19.7985 88.4609 19.2881 89.0391 18.9287C89.6224 18.5693 90.2865 18.3896 91.0312 18.3896C92.1823 18.3896 93.112 18.7881 93.8203 19.585C94.5339 20.3818 94.8906 21.4417 94.8906 22.7646V22.8662C94.8906 23.6891 94.7318 24.4287 94.4141 25.085C94.1016 25.736 93.651 26.2438 93.0625 26.6084C92.4792 26.973 91.8073 27.1553 91.0469 27.1553C89.901 27.1553 88.9714 26.7568 88.2578 25.96C87.5495 25.1631 87.1953 24.1084 87.1953 22.7959V22.6943ZM88.6484 22.8662C88.6484 23.8037 88.8646 24.5563 89.2969 25.124C89.7344 25.6917 90.3177 25.9756 91.0469 25.9756C91.7812 25.9756 92.3646 25.6891 92.7969 25.1162C93.2292 24.5381 93.4453 23.7308 93.4453 22.6943C93.4453 21.7673 93.224 21.0173 92.7812 20.4443C92.3438 19.8662 91.7604 19.5771 91.0312 19.5771C90.3177 19.5771 89.7422 19.861 89.3047 20.4287C88.8672 20.9964 88.6484 21.8089 88.6484 22.8662ZM101.922 26.1631C101.359 26.8245 100.534 27.1553 99.4453 27.1553C98.5443 27.1553 97.8568 26.8949 97.3828 26.374C96.9141 25.848 96.6771 25.0719 96.6719 24.0459V18.5459H98.1172V24.0068C98.1172 25.2881 98.638 25.9287 99.6797 25.9287C100.784 25.9287 101.518 25.5173 101.883 24.6943V18.5459H103.328V26.999H101.953L101.922 26.1631ZM105.18 22.7021C105.18 21.4053 105.487 20.3636 106.102 19.5771C106.716 18.7855 107.521 18.3896 108.516 18.3896C109.505 18.3896 110.289 18.7282 110.867 19.4053V14.999H112.312V26.999H110.984L110.914 26.0928C110.336 26.8011 109.531 27.1553 108.5 27.1553C107.521 27.1553 106.721 26.7542 106.102 25.9521C105.487 25.1501 105.18 24.1032 105.18 22.8115V22.7021ZM106.625 22.8662C106.625 23.8245 106.823 24.5745 107.219 25.1162C107.615 25.6579 108.161 25.9287 108.859 25.9287C109.776 25.9287 110.445 25.5173 110.867 24.6943V20.8115C110.435 20.0146 109.771 19.6162 108.875 19.6162C108.167 19.6162 107.615 19.8896 107.219 20.4365C106.823 20.9834 106.625 21.7933 106.625 22.8662Z" fill="white"/>
<path d="M10.7754 16.3379H6.85547V26.999H4.21875V16.3379H0.351562V14.2021H10.7754V16.3379ZM16.8838 19.8711C16.5381 19.8242 16.2334 19.8008 15.9697 19.8008C15.0088 19.8008 14.3789 20.126 14.0801 20.7764V26.999H11.54V17.4893H13.9395L14.0098 18.623C14.5195 17.75 15.2256 17.3135 16.1279 17.3135C16.4092 17.3135 16.6729 17.3516 16.9189 17.4277L16.8838 19.8711ZM22.3154 27.1748C20.9209 27.1748 19.7842 26.7471 18.9053 25.8916C18.0322 25.0361 17.5957 23.8965 17.5957 22.4727V22.2266C17.5957 21.2715 17.7803 20.4189 18.1494 19.6689C18.5186 18.9131 19.04 18.333 19.7139 17.9287C20.3936 17.5186 21.167 17.3135 22.0342 17.3135C23.335 17.3135 24.3574 17.7236 25.1016 18.5439C25.8516 19.3643 26.2266 20.5273 26.2266 22.0332V23.0703H20.1709C20.2529 23.6914 20.499 24.1895 20.9092 24.5645C21.3252 24.9395 21.8496 25.127 22.4824 25.127C23.4609 25.127 24.2256 24.7725 24.7764 24.0635L26.0244 25.4609C25.6436 26 25.1279 26.4219 24.4775 26.7266C23.8271 27.0254 23.1064 27.1748 22.3154 27.1748ZM22.0254 19.3701C21.5215 19.3701 21.1113 19.54 20.7949 19.8799C20.4844 20.2197 20.2852 20.7061 20.1973 21.3389H23.7305V21.1367C23.7188 20.5742 23.5664 20.1406 23.2734 19.8359C22.9805 19.5254 22.5645 19.3701 22.0254 19.3701ZM27.2812 22.1562C27.2812 21.2129 27.4629 20.3721 27.8262 19.6338C28.1895 18.8955 28.7109 18.3242 29.3906 17.9199C30.0762 17.5156 30.8701 17.3135 31.7725 17.3135C33.0557 17.3135 34.1016 17.7061 34.9102 18.4912C35.7246 19.2764 36.1787 20.3428 36.2725 21.6904L36.29 22.3408C36.29 23.7998 35.8828 24.9717 35.0684 25.8564C34.2539 26.7354 33.1611 27.1748 31.79 27.1748C30.4189 27.1748 29.3232 26.7354 28.5029 25.8564C27.6885 24.9775 27.2812 23.7822 27.2812 22.2705V22.1562ZM29.8213 22.3408C29.8213 23.2432 29.9912 23.9346 30.3311 24.415C30.6709 24.8896 31.1572 25.127 31.79 25.127C32.4053 25.127 32.8857 24.8926 33.2314 24.4238C33.5771 23.9492 33.75 23.1934 33.75 22.1562C33.75 21.2715 33.5771 20.5859 33.2314 20.0996C32.8857 19.6133 32.3994 19.3701 31.7725 19.3701C31.1514 19.3701 30.6709 19.6133 30.3311 20.0996C29.9912 20.5801 29.8213 21.3271 29.8213 22.3408Z" fill="white"/>
</svg>
