<svg width="101" height="101" viewBox="0 0 101 101" fill="none" xmlns="http://www.w3.org/2000/svg">
<path d="M95.1164 49.4243C104.292 79.5298 80.8245 92.9101 56.1205 92.9101C10.8165 114.653 -15.5631 86.22 11.3899 49.4243C24.5797 33.2565 0.494031 -15.8043 56.1205 5.93859C87.6613 3.70855 111.747 14.3012 95.1164 49.4243Z" fill="#063271" fill-opacity="0.05"/>
<path d="M15 36.4727H73V74.4727H15V36.4727Z" fill="white" stroke="#1063AA" stroke-width="2"/>
<path d="M40.3588 57.7805L15.3213 35.6641H72.6787L47.6412 57.7805C45.5613 59.6177 42.4387 59.6177 40.3588 57.7805Z" fill="white" stroke="black"/>
<path d="M40.7116 57.4665L16.6659 36.4727H71.3341L47.2884 57.4665C45.4046 59.1112 42.5954 59.1112 40.7116 57.4665Z" fill="white" stroke="#1063AA" stroke-width="2"/>
<path d="M39.7574 9.7153L14 35.4727H74L48.2426 9.7153C45.8995 7.37215 42.1005 7.37215 39.7574 9.7153Z" fill="#1063AA"/>
<path d="M40.6941 56.7512L25 43.0189V16.4727H64V42.0209L47.2917 56.7401C45.4074 58.4001 42.584 58.4049 40.6941 56.7512Z" fill="white" stroke="#1063AA" stroke-width="2"/>
<rect x="58" y="47.4727" width="30" height="30" rx="4" fill="#36D7B7"/>
<path d="M73.414 53.6927C75.07 53.6927 76.54 54.0347 77.824 54.7187C79.12 55.3907 80.128 56.3207 80.848 57.5087C81.568 58.6967 81.928 60.0407 81.928 61.5407C81.928 62.5967 81.772 63.5087 81.46 64.2767C81.16 65.0327 80.734 65.6087 80.182 66.0047C79.63 66.4007 78.982 66.5987 78.238 66.5987C77.626 66.5987 77.11 66.4667 76.69 66.2027C76.27 65.9387 75.964 65.5487 75.772 65.0327C75.124 66.0767 74.098 66.5987 72.694 66.5987C71.926 66.5987 71.224 66.4067 70.588 66.0227C69.952 65.6387 69.448 65.1047 69.076 64.4207C68.716 63.7247 68.536 62.9327 68.536 62.0447C68.536 61.1687 68.716 60.3887 69.076 59.7047C69.448 59.0087 69.946 58.4687 70.57 58.0847C71.206 57.7007 71.914 57.5087 72.694 57.5087C73.882 57.5087 74.806 57.9047 75.466 58.6967V57.6347H77.914V63.4667C77.914 64.2347 78.202 64.6187 78.778 64.6187C79.198 64.6187 79.522 64.3667 79.75 63.8627C79.99 63.3587 80.11 62.5967 80.11 61.5767C80.11 60.3647 79.828 59.2967 79.264 58.3727C78.712 57.4367 77.926 56.7107 76.906 56.1947C75.898 55.6667 74.734 55.4027 73.414 55.4027C72.094 55.4027 70.924 55.6847 69.904 56.2487C68.896 56.8007 68.11 57.5687 67.546 58.5527C66.994 59.5367 66.718 60.6527 66.718 61.9007C66.718 63.1727 66.994 64.3067 67.546 65.3027C68.098 66.2867 68.872 67.0547 69.868 67.6067C70.876 68.1707 72.034 68.4527 73.342 68.4527C74.638 68.4527 75.82 68.1887 76.888 67.6607L77.464 69.3167C76.924 69.5927 76.282 69.8027 75.538 69.9467C74.806 70.1027 74.074 70.1807 73.342 70.1807C71.638 70.1807 70.132 69.8207 68.824 69.1007C67.516 68.3927 66.502 67.4087 65.782 66.1487C65.062 64.8887 64.702 63.4727 64.702 61.9007C64.702 60.3407 65.062 58.9367 65.782 57.6887C66.514 56.4407 67.54 55.4627 68.86 54.7547C70.18 54.0467 71.698 53.6927 73.414 53.6927ZM73.252 64.5287C73.912 64.5287 74.452 64.3127 74.872 63.8807C75.292 63.4367 75.502 62.8247 75.502 62.0447C75.502 61.2767 75.292 60.6767 74.872 60.2447C74.452 59.8127 73.912 59.5967 73.252 59.5967C72.58 59.5967 72.04 59.8187 71.632 60.2627C71.224 60.6947 71.02 61.2887 71.02 62.0447C71.02 62.8127 71.224 63.4187 71.632 63.8627C72.04 64.3067 72.58 64.5287 73.252 64.5287Z" fill="white"/>
<path d="M30 22.4727H56M54 26.4727H30M30 30.4727H44M30 34.4727H52M30 38.4727H58M52.5 42.4727H30" stroke="#36D7B7" stroke-width="2"/>
</svg>
