<svg width="113" height="110" viewBox="0 0 113 110" fill="none" xmlns="http://www.w3.org/2000/svg">
<path d="M103.941 22.7412C114.015 40.385 114.684 66.6458 104.692 84.2856C102.443 88.2565 99.4381 91.8516 95.9873 94.9961C85.5306 104.525 68.7549 108.517 52.6853 106.987C36.6088 105.457 21.5543 98.4348 14.3894 86.3208C10.5046 79.7525 6.95774 71.5768 3.6771 61.7862C1.80728 56.206 0.751062 50.3648 1.31059 44.6001C2.6372 30.9324 8.12695 20.8847 16.174 13.9963C24.2373 7.09386 34.9428 3.30129 46.7836 2.30377C48.5698 2.1533 50.3473 1.99145 52.1216 1.82989C54.7122 1.594 57.296 1.35874 59.8895 1.16045C80.1504 -0.388551 96.3577 9.46067 103.941 22.7412Z" stroke="#F2F3FF" stroke-width="2"/>
<rect x="36.355" y="37.6758" width="20" height="37" rx="3" fill="white" stroke="#1063AA" stroke-width="2"/>
<rect x="40.355" y="41.6758" width="12" height="4" fill="white" stroke="#1063AA" stroke-width="2"/>
<rect x="40.355" y="49.6758" width="12" height="4" fill="white" stroke="#1063AA" stroke-width="2"/>
<rect x="40.355" y="57.6758" width="12" height="4" fill="white" stroke="#1063AA" stroke-width="2"/>
<circle cx="46.355" cy="68.6758" r="2" fill="#1063AA"/>
<path d="M68.855 63.6758C60.8469 63.6758 54.355 65.5946 54.355 67.9615V81.1044V81.3901C54.355 83.757 60.8469 85.6758 68.855 85.6758C76.8631 85.6758 83.355 83.757 83.355 81.3901V81.1044V67.9615C83.355 65.5946 76.8631 63.6758 68.855 63.6758Z" fill="white" stroke="#36D7B7" stroke-width="2"/>
<path d="M83.355 68.6758C83.355 70.8849 76.8631 72.6758 68.855 72.6758C60.8469 72.6758 54.355 70.8849 54.355 68.6758" stroke="#36D7B7" stroke-width="2" stroke-miterlimit="11.4737"/>
<path d="M83.355 74.6758C83.355 77.4372 76.8631 79.6758 68.855 79.6758C60.8469 79.6758 54.355 77.4372 54.355 74.6758" stroke="#36D7B7" stroke-width="2" stroke-miterlimit="11.4737"/>
<path d="M60.355 36.6758C59.8027 36.6758 59.355 37.1235 59.355 37.6758C59.355 38.2281 59.8027 38.6758 60.355 38.6758V36.6758ZM68.355 37.6758H69.355V36.6758H68.355V37.6758ZM67.6479 51.3829C68.0384 51.7734 68.6716 51.7734 69.0621 51.3829L75.426 45.0189C75.8166 44.6284 75.8166 43.9952 75.426 43.6047C75.0355 43.2142 74.4024 43.2142 74.0118 43.6047L68.355 49.2616L62.6981 43.6047C62.3076 43.2142 61.6744 43.2142 61.2839 43.6047C60.8934 43.9952 60.8934 44.6284 61.2839 45.0189L67.6479 51.3829ZM60.355 38.6758H68.355V36.6758H60.355V38.6758ZM67.355 37.6758V50.6758H69.355V37.6758H67.355Z" fill="#1063AA"/>
<path d="M80.355 58.9699L76.6367 68.6758H59.355V54.6758H66.355L67.355 55.6758H77.355V58.9699H80.355Z" fill="white"/>
<path d="M59.355 68.6758H76.6367L80.355 58.9699H77.355M59.355 68.6758L63.355 58.9699H77.355M59.355 68.6758V54.6758H66.355L67.355 55.6758H77.355V58.9699" stroke="#36D7B7" stroke-width="2"/>
</svg>
