<svg width="12" height="18" viewBox="0 0 12 18" fill="none" xmlns="http://www.w3.org/2000/svg">
<path d="M4.5 13C3.94772 13 3.5 13.4477 3.5 14C3.5 14.5523 3.94772 15 4.5 15V13ZM7.5 15C8.05228 15 8.5 14.5523 8.5 14C8.5 13.4477 8.05228 13 7.5 13V15ZM4 1V0H3V1H4ZM8 1H9V0H8V1ZM3 2H9V0H3V2ZM10 3V15H12V3H10ZM9 16H3V18H9V16ZM2 15V3H0V15H2ZM3 16C2.44772 16 2 15.5523 2 15H0C0 16.6569 1.34315 18 3 18V16ZM10 15C10 15.5523 9.55228 16 9 16V18C10.6569 18 12 16.6569 12 15H10ZM9 2C9.55228 2 10 2.44772 10 3H12C12 1.34315 10.6569 0 9 0V2ZM3 0C1.34315 0 0 1.34315 0 3H2C2 2.44772 2.44772 2 3 2V0ZM4.5 15H7.5V13H4.5V15ZM4 2H8V0H4V2ZM7 1H5V3H7V1ZM5 1H3C3 2.10457 3.89543 3 5 3V1ZM7 1V3C8.10457 3 9 2.10457 9 1H7Z" fill="#DEE2EB"/>
</svg>
