<svg width="113" height="110" viewBox="0 0 113 110" fill="none" xmlns="http://www.w3.org/2000/svg">
<path d="M103.941 87.2588C114.015 69.615 114.684 43.3542 104.692 25.7144C102.443 21.7435 99.4381 18.1484 95.9873 15.0039C85.5306 5.47517 68.7549 1.48286 52.6853 3.01254C36.6088 4.54287 21.5543 11.5652 14.3894 23.6792C10.5046 30.2475 6.95774 38.4232 3.6771 48.2138C1.80728 53.794 0.751062 59.6352 1.31059 65.3999C2.6372 79.0676 8.12695 89.1153 16.174 96.0037C24.2373 102.906 34.9428 106.699 46.7836 107.696C48.5698 107.847 50.3473 108.009 52.1216 108.17C54.7122 108.406 57.296 108.641 59.8895 108.84C80.1504 110.389 96.3577 100.539 103.941 87.2588Z" stroke="#F2F3FF" stroke-width="2"/>
<circle cx="36.8545" cy="56.8945" r="6.5" stroke="#1063AA" stroke-width="2"/>
<path d="M51.3545 78.3945V78.3945C51.3545 71.7671 45.9819 66.3945 39.3545 66.3945H35.3545C28.7271 66.3945 23.3545 71.7671 23.3545 78.3945V78.3945" stroke="#1063AA" stroke-width="2"/>
<path d="M46.3545 45.1798L46.3545 28.3945C46.3545 27.8422 46.8022 27.3945 47.3545 27.3945L65.3545 27.3945C65.9068 27.3945 66.3545 27.8422 66.3545 28.3945L66.3545 43.3945C66.3545 43.9468 65.9068 44.3945 65.3545 44.3945L63.3545 44.3945L59.3545 44.3945L51.96 44.3945C51.3678 44.3945 50.7887 44.5698 50.2959 44.8984L46.3545 47.526L46.3545 45.1798Z" fill="white" stroke="#1063AA" stroke-width="2"/>
<circle r="6.5" transform="matrix(-1 0 0 1 80.8545 56.8945)" stroke="#36D7B7" stroke-width="2"/>
<path d="M50.3545 31.3945H63.3545M50.3545 34.3945H61.3545M61.3545 37.3945H50.3545M50.3545 40.3945H56.3545" stroke="#1063AA" stroke-width="2"/>
<path d="M67.3545 78.3945V78.3945C67.3545 71.7671 72.7271 66.3945 79.3545 66.3945H83.3545C89.9819 66.3945 95.3545 71.7671 95.3545 78.3945V78.3945" stroke="#36D7B7" stroke-width="2"/>
<path d="M71.3545 54.3425L71.3545 38.3945C71.3545 37.8422 70.9068 37.3945 70.3545 37.3945L55.3545 37.3945C54.8022 37.3945 54.3545 37.8422 54.3545 38.3945L54.3545 52.3425C54.3545 52.8947 54.8022 53.3425 55.3545 53.3425L59.2006 53.3425L67.662 53.3425C68.3172 53.3425 68.9544 53.557 69.4762 53.9532L71.3545 55.3795L71.3545 54.3425Z" fill="white" stroke="#36D7B7" stroke-width="2"/>
<path d="M58.3545 44.8945L61.8545 48.3945L68.8545 41.3945" stroke="#36D7B7" stroke-width="2" stroke-linecap="round"/>
</svg>
