<svg width="18" height="18" viewBox="0 0 18 18" fill="none" xmlns="http://www.w3.org/2000/svg">
<g clip-path="url(#clip0)">
<path d="M6.04805 4.03672C5.85941 3.71009 5.61996 3.54688 5.32985 3.54688H2.7289C2.56206 3.54688 2.44603 3.60134 2.38066 3.71005C2.30096 3.81888 2.30454 3.9532 2.39164 4.1128L4.14372 7.14905C4.15089 7.15641 4.15089 7.16003 4.14372 7.16003L1.39034 12.0354C1.3178 12.1737 1.3178 12.3041 1.39034 12.4275C1.46307 12.5509 1.57536 12.6125 1.72779 12.6125H4.32871C4.60437 12.6125 4.84016 12.4456 5.03597 12.1119C6.828 8.93434 7.76038 7.2801 7.83292 7.14947L6.04805 4.03672Z" fill="#222222"/>
<path d="M16.6043 0.565924C16.6842 0.413608 16.6842 0.279398 16.6043 0.163332C16.5388 0.0546599 16.4267 0.000152468 16.267 0H13.6443C13.3612 0 13.1292 0.163179 12.9478 0.48969C9.22574 7.09191 7.29957 10.509 7.16895 10.7412L10.8582 17.5103C11.0322 17.8367 11.2717 18.0001 11.5764 18.0001H14.1776C14.3371 18.0001 14.453 17.9456 14.5257 17.8368C14.5983 17.7134 14.5946 17.5793 14.5148 17.434L10.8582 10.7412V10.7304L16.6043 0.565924Z" fill="#222222"/>
</g>
<defs>
<clipPath id="clip0">
<rect width="18" height="18" fill="white"/>
</clipPath>
</defs>
</svg>
